<svg version="1.1" id="Layer_1" xmlns="http://www.w3.org/2000/svg" x="0" y="0" viewBox="0 0 1200 1200" style="enable-background:new 0 0 1200 1200" xml:space="preserve"><style>.st1{fill:#080909}.st2{fill:#d4d4d4}.st3{fill:#747374}.st4{fill:#3e3f3f}.st5{fill:#292929}.st8{fill:#a8a7a8}.st9{fill:#fff}.st10{fill:#0f99d6}.st11{fill:#010101}</style><g id="cWmv6R.tif"><path d="M690.4 1181.4c3.3.3 6.5.7 9.6 1.8.6.2 1.2.1 1.9.1-1 .9-1.9 1.9-2.9 2.8-.9.9-1.9 1.8-2.8 2.7-1.6-.2-3.1-.8-3.8-2.4-.8-1.6-1.4-3.3-2-5z" style="fill:#bdbdbd"/><path class="st1" d="M571.7 1085.4c-26.8-3.8-63.9-3.9-90.5-18.8 2.4-36.9 8.4-101.5 9.8-111 1.3-8.9 63-12.6 92.7-13.9 37.4-.7 66.8-2.5 102.1 1.4 54.2 6.9 43.9.5 50 53.2 2.4 22 8 67 7.4 68.5-1.3 3.1-20.7 8-31.6 10.9-47.5 12.7-90.9 9.2-139.9 9.7z"/><path class="st2" d="M766.5 1077.9c-2.8-29-7-57.8-10.7-86.7-.7-7-1.9-13.9-2.6-20.9-.4-3.2-.1-25.2-5-29.7-59.2-13.6-122-16.7-183.1-11.6 0 .1-56.1 8.3-67 10.1-12.4 1.8-24.7 6.7-25.8 21.2-2.5 50.1-17.9 100.9-10.1 150.9 3.3 14 6.5 28 10.2 41.8 3.2.8 6.5 1.5 9.7 2.2 1.1.2 1.8-.2 2.3-1.2-1.6-8.4-5.1-30.8-3.2-30 29.5 12.8 84.8 14.4 84.8 14.4l91.1-.4c27.5-.2 65.3-3.2 88.9-16.8 0 0 .7 1.5-1.8 15-3.3 21.7-6.8 17.5 9.4 16 .7-3.4-1-7.1 1.4-10.2.2-.3.2-.7.3-1.1l4.9-22.9c.5.4 1.3.6 1.9.9 3.4-13.2 5.6-27.2 4.4-41zM486.9 963.5c-.4 6-.9 12.1-1.4 18.2l1.4-18.2zm254.5 102.4c-28.1 10.1-87.7 18.7-87.7 19.2-16.1.1-78.5.4-86.9.3v-.1c-22.7-3.4-63.5-8.6-84.9-17.4.2-28.1 8.6-91.2 9.3-112.6.7-6.7 53.6-11.4 78.5-13-.1-1 76.1-1.2 80.2-1.1 0-.1 79.9.1 80.9 15.5.7 10.6 8.4 70.3 12.2 105.5.3 1.7 0 2.9-1.6 3.7z"/><path class="st2" d="M675 1149.8c-42.7.7-85.3.8-128 1.1 4.1 1 10.5 0 15.3.4 35.1-.7 83.4 1.1 112.7-1.5z"/><path class="st3" d="M478.8 1121.6h-.3c0 .4 0 .9.1 1.3l2.1 11.1h.5c-.3-2.2-.6-4.4-1-6.5-.4-2-1-3.9-1.4-5.9zm6.1 32.5c-.4-2.2-.8-4.4-1.2-6.5-.5-2.4-.9-4.7-1.4-7.1-.4-2.2-.8-4.3-1.2-6.5h-.5c.4 2.2.9 4.3 1.3 6.5.1.6.1 1.2.2 1.9.3 1.8.6 3.7 1 5.5.4 2.1.9 4.1 1.3 6.2-.5.9-1.2 1.4-2.3 1.2-1.6-.3-3.1-.7-4.7-1-1.7-.4-3.3-.8-5-1.2l.3 1.2c1.6.3 3.2.5 4.8.8 2.3.4 4.5 1.3 6.9.5l.3-.6c.1-.1.1-.2.2-.3v-.6z"/><path class="st4" d="M751.6 1157.5c-2.8 5.8-9.7 15.9-19.4 19.6-9.1 3.5-27.4 6.1-29.3 6.2-4 .3-3.9 3.4-6.7 5.6 9.9 1.6 20.1-1.5 30-2.4 19.8-2 24.9-13.5 28.1-31.4-1 .7-2.2 1.4-2.7 2.4z"/><path class="st5" d="M644.6 1084.6c0 1.2 0 2.3.1 3.5 0 .1-.1.3-.1.6h-13.3v-4.1c.3 0 .6.1.9.1-.1.3-.2.6-.3 1 .5-.2.9-.3 1.3-.5.1.1.2.1.2.2-.2.4-.5.8-.7 1.2.3.2.6.3 1.3.7-.2-1.1-.3-1.9-.5-2.7.7.1 1.4.2 2.1.2-.1.8-.3 1.7-.3 2.5 0 .4.6.9.9.9.4 0 1-.5 1.1-.8.1-.9-.2-1.8-.3-2.6l2.7-.3c-.4.5-.1 2.8.5 3.6v-3.6h2.7l-.6.9h.5c.2.9.4 1.7.6 2.6h.4v-3.5c.2.1.5.1.8.1zm25.6-115.4h7.5v2.7h-7.5v-2.7z"/><radialGradient id="SVGID_1_" cx="617.4" cy="-4.035" r="211.006" fx="624.158" fy="-3.846" gradientTransform="translate(0 1120)" gradientUnits="userSpaceOnUse"><stop offset="0" style="stop-color:#a8a7a8"/><stop offset=".37" style="stop-color:#b5b4b4"/><stop offset="1" style="stop-color:#d4d4d4"/></radialGradient><path d="M757.6 1117.9c-.4 6.1-.7 12.2-1.1 18.4.1 4.9-3.9 8.1-2.8 13.3.7 4.9-6.3 3.6-9.6 4.8-6.7.6-.6-11.4-1-15.3.8-5.9 2.1-11.8 2.9-17.7-44.2 23.6-223.1 22.2-267.2-1.4 1.3 9.2 3.2 18.5 4.9 27.7 4 11.9-3.1 7.6-11 6.6 1.7 8.5 3.8 17.3 8.8 24.5 1.4 1.3 2.8 2.6 4.1 3.9 6.7 6.1 42.9 10.5 46.2 4.5 5-5.8 5.6-37.6 11.6-37.1 38.6-1.6 93.3-.5 133.2-.9 2.2 0 5.2-.2 6 2.4 1.8 6.1 2.8 12.6 4.8 18.6 1 3.8 2 7.7 3 11.5 1.7 1.8 6.4 2.2 12 1.8v.1c.8-.1 1.6-.1 2.4-.2 1.5-.3 3.1-.5 4.6-.8 2.6-.4 5.1-.8 7.6-1.3 2.4-.5 4.9-1 7.3-1.5 1.7-.3 3.3-.8 4.9-1.1.3-.2.6-.4.9-.5 11.2-4.3 11-4.5 14.9-8.8 2.5-2.8 4.7-10 9.2-14 2.6-12 6.5-23.8 7.9-36-1.5-.6-3.3-3.2-4.5-1.5zm-70.2 52c.1 0 .2.1.3.1-.1 0-.2 0-.3-.1z" style="fill:url(#SVGID_1_)"/><path class="st4" d="M528 1186.4c-46.2-1.7-54-14.7-40.3-2.5 13.8 5.4 29.7 6.7 38 5.6 6.6-.8 8.4-2.8 2.3-3.1zm225.5-98.9c.7-7.5 1.4-15 2-22.5.1-1 .4-1.3 1.3-1.2 1.4.1 2.8.2 4.2.4.1-.1.1-.2.2-.3-.4-.3-.7-.7-1.2-.7-1.4-.2-2.8-.3-4.2-.3-.4 0-1.2.7-1.2 1.1-.3 2.7-.5 5.4-.7 8.1-.3 5.2-.6 10.3-.9 15.5-.1 1.6-.1 3.1-.2 4.7-.1.6-.1 1.1-.2 1.7-.2 1.8-.3 3.6-.4 5.4-.2 3.1-.3 6.2-.5 9.3-.2 3.8-.5 7.6-.7 11.5-.2 1.7-.3 3.3-.5 5v.6l-.9 11.7c0 .3-.1.7-.1 1-.1 2 .1 2.1 2 2.4 1.3.1 2.5.2 3.8.3.3-.5.9-1 1-1.5.2-1.1.2-2.2.3-3.3.2-4.3.5-8.5.7-12.8.1-1.9.3-3.7.4-5.6h-.5c-.1 1.9-.3 3.7-.4 5.6-.4 4.7-.7 9.5-1.1 14.5-1.9-.2-3.7-.4-5.5-.6.3-4.4.6-8.7.9-13.1l.3-4.2c.3-3.3.6-6.7.9-10 .2-2.7.4-5.4.7-8.1 0-.3.6-.7 1-.9.4-.1.9 0 1.3-.1-.4-.2-.8-.6-1.3-.6-1.1 0-1.5-.4-1.4-1.5.2-1.6.3-3.2.5-4.7 0-.1-.1-.2-.1-.3 0-.6.1-1.2.1-1.8.2-1.6.2-3.1.4-4.7z"/><path class="st4" d="M759.6 1084.9h-.3c-.3 4.4-1.3 17.3-1.4 23 0 .3-.1.5-.1.5-.2 2.8-.5 5.6-.7 8.4v1h.5c0-.1.1-.2.1-.3.1-1.8.4-6.9.7-11.6.7-6.2 1.2-17 1.2-21z"/><path class="st1" d="M759.3 1057.2c-.5-3.2-.8-6.4-1.2-9.6h-.8c.2 2 .5 4 .7 6.1.2 1.2.2 2.2-1.5 2.3-.8 0-1.5.1-2.3.3-.9.2-1.7.2-2-1 .1 1.3.3 2.5.7 3.6.1.3.7.6 1.1.6 1.3 0 2.6-.2 3.9-.3 1.1-.2 1.6-.7 1.4-2zm-10.1-28.8h-.3c.9 8.3 1.9 16.6 2.8 24.8h.6c-1.1-8.3-2.1-16.5-3.1-24.8zm6.9 2.9c-.2-1.9-.6-3.8-.9-5.7-.3-3.1-.5-6.2-.8-9.3-.5-4.5-1-9-1.6-13.6l-1.2-10.8c-.4-3.1-.7-6.3-1.1-9.4-.1-.4-.6-1-.9-1-1.6 0-3.1.2-4.7.3-.3 0-.6.4-.9.7 1.5.1 2.9-.1 4.2-.2.8-.1 1.3.1 1.4 1.1.3 2.9.7 5.7 1 8.5.9 7.3 1.7 14.7 2.6 22 .2 1.6.3 3.1.5 4.7-1.2.2-2.2.3-3.1.5-2.2.4-2.2.4-2.5-1.8-.5-4-1-8.1-1.4-12.2-.6-4.5-1.1-9-1.7-13.5-.2 0-.4 0-.6.1.6 4.5 1.1 8.9 1.7 13.4.5 4.9 1.1 9.8 1.6 14.8 1.1-.2 1.9-.3 2.8-.4.3 0 .7 0 1-.1 2.1-.2 2-.2 2.2 1.8.1 1.3.4 2.6.7 3.8 0 .6 0 1.5.1 2.1.5 4.4 1 8.8 1.6 13.2.3 2.4.7 4.8 1.1 7.2h.8c-.6-5.3-1.2-10.7-1.9-16.2z"/><path class="st1" d="M744.3 985.5c-.1 0-.3.1-.4.1.2 1.6.3 3.2.5 4.8.2 0 .4 0 .5-.1l-.6-4.8z"/><path class="st4" d="M558.5 1089.4c0-1.1-.6-1.2-1.3-1.2h-14.6c-.9 0-1.2.4-1.1 1.2-.1.5-.2 1-.2 1.6 0 1.9.1 3.8.1 5.8v8.9h.5c0-1.4 0-2.8.1-4.2.1-3.1.1-6.3.2-9.4 0-1 0-1.9.1-2.9.3-.1.6-.2 1-.2 4.6 0 9.1-.1 13.7-.1.4 0 1.2.6 1.2 1 .1 3.6 0 7.1 0 10.7v3.6c.1 1.1-.4 1.6-1.5 1.4-2.1 0-4.1-.1-6.2-.1-1.2.1-2.4.2-3.5.3-1.1 0-3.7-.1-5-.1.8 1.3 3.3 1.3 4.4 1.2 3.6-.3 7.2.9 10.8-.6 1.6-.7 1.7-1.4 1.7-2.8 0-3.1 0-6.2.1-9.3-.3-1.7-.6-3.2-.5-4.8z"/><path d="M566.9 1068c-48.6.5-51.4-9.5-72.7-7.7 0 .5 9.5-100.5 9.5-100.5l63.2-4.1s-.9 112.8 0 112.3zm91.8 0c48.6.5 51.4-9.5 72.7-7.7 0 .5-9.5-100.5-9.5-100.5l-63.2-4.1s.9 112.8 0 112.3zm-60.9-82.3h30.5v84.1h-30.5v-84.1z" style="fill:#2b2b2b"/><path class="st5" d="M649.5 930.7c-.9-3.7-65.3-.3-76.7.6-.7-.1-1.5-.1-2.3 0h-.1c-2.5.3-2.2 12.2.8 10.8 25.1-2.4 54-.7 78.6-2 .5-1.7 1-7.9-.3-9.4z"/><path class="st1" d="M750.7 1152.4c-2.2.4-4.4 1-6.6 1.3-2.1.3-3.1-.2-2.5-2.5.2-.7.1-1.3.3-2 .8-4.3 1.6-8.5 2.3-12.8.6-3.2 1.1-6.4 1.6-9.6 0-.5 0-1 .1-1.5.3-1.5.7-3.1.8-4.6.6-5.6 1.2-11.2 1.8-16.9.3-2.8.5-5.6.7-8.4 0-.2-.1-.5-.1-.7.2-3.5.3-7 .2-10.5 0-.7-.1-6.8-.2-7.4-.1-1.6-.5-5-.8-8.1h.1c-.4-3.5-.7-7-1.1-10.5-.1-.8-.2-1.6-.3-2.3-.1-1.6-.9-8.3-1-9.9v-.5c-.5-4.6-1.1-9.1-1.7-13.7-.3-2.3-.6-4.6-1-6.9-.4-3-.8-8-1.2-11-1.2-11-2.4-22-3.6-32.9l-1.5-13.8-.3-3.9c-.2-2-.1-2.1 1.8-2.4.3-.1.7-.1 1-.1 4.1-.1 8.2-.1 12.3-.2v-.5h-12.6c-1.3 0-2.4.4-3.1 1.5.1 1.9.3 3.7.4 5.6L738 981v1c.6 5 1.1 10 1.7 15 .6 5.6 1.3 11.2 1.9 16.9.3 2.9.9 8.4 1.2 11.3l.9 7.5c.4 3.5.8 6.9 1.2 10.4.2 1 .3 2.1.5 3.1.2 1.5.8 6.9 1 8.7v.3l.9 8.7c0 .4.1.7.1 1.1.3 3.5 1 13.5 1.2 17.9 0 1.4.1 2.7.1 4.1-.1 2.6-.1 5.2-.2 7.7-.3 3.9-.5 7.9-.9 11.8-.3 2.9-.7 5.8-1 8.7-.4 3.4-.9 6.8-1.3 10.2-.2.8-.5 1.5-.6 2.3l-1.8 11.4-2.1 12.3c-.4 2.4.8 3.4 3.1 3 1.9-.4 3.9-.7 5.8-1.1 1.2-.2 2.4-.6 3.6-.9-.7-.1-1.7-.2-2.6 0z"/><path class="st5" d="M486.7 963.5s0-.1-.2-.1c-4.2-.1-10-.7-14.2-.7v.5c.8 0 1.5.1 2.3.1 1.8 0 3.5 0 5.3.1 2 .2 4.4-.4 6.5.5-.1.8-.3 2.3-.3 2.4-.3 3.3-.7 6.6-1 9.9-.6 6.3-1.2 12.7-1.8 19-.2 1.8-.5 3.6-.7 5.5v1.8c0 .6-.1 1.2-.1 1.8-.1.6-.2 1.1-.2 1.7-.2 1.7-.4 3.3-.5 5-.1 1.6-.2 3.3-.4 4.9-.5 4.5-.9 9.1-1.4 13.6l-.9 8.7c-.5 5.4-1.1 10.7-1.6 16.1l-.3.9c-.2 1.8-.4 3.5-.6 5.3.1.1.1.2.2.3 0 1.2-.1 2.3-.1 3.5-.2 2.6-.6 7.6-.8 11-.1.1-.2.2-.2.3l-.3 10.4v5.9c.3 4.5.6 9.1 1 13.6.3 3.4.9 6.8 1.4 10.2.3 2 .7 3.9 1.1 5.8h.3v-1.8c-.4-2.8-.8-5.6-1.2-8.3-.5-3.5-1.1-6.9-1.4-10.4-.3-2.9-.2-5.9-.3-8.8 0-.9.1-1.8.1-2.6-.1-2.4-.2-4.8-.2-7.2 0-1.8.1-3.5.1-5.3.1 0 .1 0 .1-.1.2-2.8.5-9.8.7-12.6.2-1.2.3-2.3.5-3.5.3-2.4.5-4.7.8-7.1.1-1 .2-1.9.3-2.9.6-5.4 1.2-10.8 1.7-16.2.4-4 .9-7.9 1.3-11.9l1.2-11.1c.4-4.1.7-8.2 1.1-12.3.5-5.5 1.1-11 1.6-16.5.4-3.7.7-7.5 1.1-11.2.2-1.9.5-6.1.6-8.1-.5-.1-.5-.1-.6-.1z"/><path class="st5" d="M479.8 972c-.5 0-1-.1-1.5-.1-1-.1-2.1-.2-3.1-.3-.2.8-.6 1.5-.7 2.3l-2.1 21.9c-.8 7.6-1.6 15.3-2.4 22.9-.6 5.4-1.2 10.8-1.7 16.2-.4 4-.7 8-1.1 12.1-.1.9.2 1.6 1 2 1.3 0 2.5 0 3.8.2 1.1.1 1.5-.4 1.5-1.4 0-.1.1-.3.1-.4v-1.4h-.4c-1 0-2 0-3-.1-2.1-.2-2.1-.4-1.9-2.5.8-6.4 1.5-12.9 2.2-19.3.5-4.5.9-9 1.4-13.5.1-.8.5-1.1 1.3-1 1.2.1 2.3.3 3.5.4.2-.3.4-.7.6-1h-4c-1 0-1.4-.4-1.3-1.4.2-2.1.4-4.2.6-6.2.6-5.9 1.2-11.7 1.8-17.6 0 0 .1 0 .1-.1v-.2c-.1.1-.1.2-.1.3 0-.1 0-.2.1-.3.2-2.1.4-4.1.6-6.2 0-.1.1-.3.1-.4.1-1.1.2-2.2.3-3.4 0-.1.1-.2.1-.3.3-.2.6-.6.9-.6 1.1 0 2.3.2 3.4.3h1.1c0-.1.1-.3.1-.4-.5-.1-.9-.3-1.3-.5zm-4.1 155.8c-1.6-12.6-2.3-25.4-3.4-38.1-1.8.1-3.4.3-5.1.4-1.4-8-1.4-16.2-2.8-24.2v-1.4h-.1c-.1-.7-.1-1.5 0-1.5l-.6-6.3h-.3l.3 6.3c.1.6.2 1.1.3 1.5 0 .5.1.9.1 1.4.7 8.5 1.3 17 1.9 25.5 1.6 12.9 1.2 26.1 4 38.8 1.3.3 2.6-.3 3.9-.3 1.6 0 2-.7 1.8-2.1zm-1.4-1.2c-5.2 1.2-4.2-.7-5-5.1-.8-9.9-1.7-20.1-2.5-30.1 1.2-.3 3-1.4 4.8-1 1.4 11.8 2.2 24 3.1 35.7-.3.4-.3.5-.4.5z"/><path class="st5" d="M471.7 1080.8c0-.1-.1-.3-.2-.4-.5-6.5-1.3-18.4-1.8-24.5-.1-1.1.5-2.6-1.1-3.4-1.9.2-4-.1-5.7 1.6 2-.2 3.7-.3 5.5-.5.2 2.1.3 4 .5 5.8l1.5 15c.1.8.3 3.8.5 5.3v-.1l.3 1.8c.2 1.6.3 3.3.4 4.9h.4v-2.3c-.1-1.1-.1-2.2-.3-3.2zm9.4-108.1c-.5.2-.9 0-.9.3 0-.1-.8 13.4-.9 13.3l-4.5 43.1s-1 11.1-1.6 16.6h.4c.7-5.8 1.4-11.6 2-17.4-.1.2 4.8-49 5.5-55.9zm201.5 178.6c-1.1-4.8-20.1-2.1-25.2-2.9-.9-21.4.3-42.6-.2-64-.7 0-5 .7-5.7.7.1 20.8-.4 41.7.2 62.5.7 2.6-14.9.6-17.4 1.2-19.3.4-38.6.2-57.9.2v1.5c26.9-.2 53.8 0 80.7-.6 6-.2 11.9.1 17.9-.2 1.3-.3.5 1.4.8 2.1 0-.4 0-.8-.1-1.3-37.4.2-74.7.9-112.1.6v-.2c4.3-.2 8.6-.1 12.9-.4v-1.5c-1.3-.1-2.7-.2-4.2-.3-.5-21.1-.4-42.3-.5-63.4-1.6 0-3.3 0-4.9-.1-.1 21.5-.6 42.8.2 64.3-8.4 0-16.9-.2-25.2.5-2.8 5.3-3.7 11.8-4.6 17.7 49.8-.7 99.6-1.4 149.4-.7-1.5-5-2.7-10.4-4.1-15.7zm-135.7 0v-.3c5.1.1 10.2.2 15.3.2v.3c-5 0-10.1-.1-15.3-.2z"/><path class="st1" d="M701.2 1181.8c-1.4.2-2.4.1-3.1-1.2-.8-2.4-2.4-6.7-1.5-9.1 1-2.7 27.9-11.9 40.1-15.3 1.8 1.1-2.6 17.1-5.8 19.4-1.1.7-12.6 3.2-29.7 6.2z"/><circle class="st4" cx="721.7" cy="1169.7" r="6.6"/><path class="st8" d="M724.6 1168.3c0-1.7-1.4-3.1-3.1-3.1s-3.1 1.4-3.1 3.1c.9-.5 4.8-.3 6.2 0z"/><path class="st1" d="M494.3 1176.8c-3.2-2.3-7.7-18.3-5.8-19.4 12.2 3.4 39.1 12.6 40.1 15.3.9 2.3-.8 6.7-1.5 9.1-.7 1.4-1.7 1.5-3.1 1.2-17.2-3-28.7-5.5-29.7-6.2z"/><circle class="st4" cx="503.4" cy="1170.9" r="6.6"/><path class="st8" d="M500.5 1169.5c0-1.7 1.4-3.1 3.1-3.1s3.1 1.4 3.1 3.1c-.9-.5-4.8-.3-6.2 0z"/><path class="st5" d="M516 1125c1.4-7.2-9.2-32.2-10.6-35.6-2-4.6-6.7-8-10.7-10.3-5.7-3.3-13.1-9.1-12.4 2.6.5 9.7 1.2 25.9 4.5 35.1 1.9 5.4 28 14.6 29.2 8.2z"/><path class="st2" d="M514.2 1121.5c-.8-3.8-9.6-30.6-12.1-34.2-1.7-2.4-18.1-13.8-17.9-8.2.4 9.4 1.2 23.7 2.9 33.3 1.5 8.2 16.1 11.9 22.9 13.2 1.8.3 5-.3 4.2-4.1z"/><path class="st3" d="M502.1 1087.3c-2.7-3.1-18.6-13.9-18-8.1.8-1 5.8.1 7.9 1.9 2 1.7 2.6 2.6 3.7 2.7 4.1.1 6.6 4.2 6.4 3.5z"/><circle class="st4" cx="494.7" cy="1093" r="9.3"/><circle class="st8" cx="492.3" cy="1088.6" r="2.3"/><circle class="st8" cx="496.9" cy="1088.6" r="2.3"/><circle class="st8" cx="492.3" cy="1096.6" r="2.3"/><circle class="st8" cx="496.9" cy="1096.6" r="2.3"/><circle class="st8" cx="494.6" cy="1092.6" r="2.3"/><circle class="st8" cx="490" cy="1092.6" r="2.3"/><circle class="st8" cx="499.2" cy="1092.6" r="2.3"/><path class="st9" d="M510 1111.2c.4 9.6-14.5 10.4-15 .4.5-8.8 14.2-8.6 15-.4z"/><g><path class="st5" d="M736.8 1117.1c4.4-8.7 4-25.9 4.4-35.6.6-11.7-6.7-5.9-12.4-2.6-4 2.3-8.7 5.7-10.7 10.3-1.4 3.4-11.2 28.3-10.6 35.6.5 5.6 27-3.1 29.3-7.7z"/><path class="st2" d="M712.7 1124.7c6.8-1.3 23.1-4.8 24.6-13 1.7-9.7 1.7-23.6 2.1-33 .2-5.5-16.2 5.8-17.9 8.2-2.5 3.6-11.3 30.4-12.1 34.2-.8 3.9 1.6 3.9 3.3 3.6z"/><circle class="st4" cx="728.9" cy="1092.6" r="9.3"/><circle class="st8" cx="731.3" cy="1088.3" r="2.3"/><circle class="st8" cx="726.7" cy="1088.3" r="2.3"/><circle class="st8" cx="731.3" cy="1096.2" r="2.3"/><circle class="st8" cx="726.7" cy="1096.2" r="2.3"/><circle class="st8" cx="729" cy="1092.3" r="2.3"/><circle class="st8" cx="733.5" cy="1092.3" r="2.3"/><circle class="st8" cx="724.4" cy="1092.3" r="2.3"/><path class="st9" d="M713.6 1110.9c-.4 9.6 14.5 10.4 15 .4-.5-8.8-14.2-8.7-15-.4z"/></g></g><g id="logo" transform="translate(-93.615 -159.24)"><g id="g829" transform="matrix(6.09037 0 0 6.0904 .603 69.487)"><path id="path825" class="st10" d="M117.6 196.4v.1c-.2-.1-.4-.2-.7-.2-.2 0-.7 0-1 .3.3.2.4.5.4.9s-.2.7-.4.9c.1.1.2.1.3.2.3.2.6.2.8.2.2 0 .4 0 .8-.2v.1h.9v-2.3h-1.1zm-.6 1.9c-.4 0-.7-.3-.7-.7s.3-.7.7-.7c.4 0 .7.3.7.7-.1.4-.4.7-.7.7z"/><path id="path827" class="st11" d="M114.8 196.4c-.6 0-.8.1-.8.2v-1.1h-.9v3.3h.9v-.2c.3.2.6.2.9.2s1.4-.1 1.4-1.2c0-.8-.7-1.2-1.5-1.2zm0 1.9c-.4 0-.7-.3-.7-.7s.3-.7.7-.7c.4 0 .7.3.7.7s-.3.7-.7.7z"/></g><g id="text16" transform="translate(0 46.567)"><path id="path32" class="st11" d="M699 1213.6h2.1c.1 0 .2.1.2.1.1 0 .1.1.2.1l.2.2c0 .1.1.2.1.3v.3c0 .1-.1.1-.1.2-.1.1-.1.1-.2.1s-.2.1-.3.1c.1 0 .2.1.3.1s.2.1.3.2l.2.2c0 .1.1.2.1.3 0 .2 0 .3-.1.4s-.1.2-.3.3c-.1.1-.3.1-.4.1H699v-3zm.9 2.6h.7c.1 0 .1 0 .1-.1l.1-.1v-.2s0-.1-.1-.1-.1 0-.1-.1h-.6v.6h-.1zm0-1.4h.7c.1 0 .1 0 .1-.1l.1-.1v-.2s0-.1-.1-.1l-.1-.1h-.7v.6z"/></g><g id="text20" transform="translate(33.803 46.418)"><path id="path35" class="st11" d="M673 1213.7h1.1l1.3 3.3h-1l-.2-.6h-1.3l-.2.6h-1l1.3-3.3zm.9 2-.4-1.3-.4 1.3h.8z"/></g><g id="text24" transform="translate(62.4 47.211)"><path id="path38" class="st11" d="M650.4 1212.9h1.9c.1 0 .3.1.4.1.1.1.2.1.3.3.1.1.1.3.1.4s0 .2-.1.3c0 .1-.1.2-.2.2-.1.1-.2.1-.3.1s-.2.1-.3.1c.2 0 .3 0 .4.1.1.1.2.1.2.2s.1.2.1.3c0 .1 0 .2.1.3v.4h-1v-.6c0-.1 0-.2-.1-.2s-.1-.1-.1-.2-.1-.1-.2-.1h-.4v1.2h-.9l.1-2.9zm1 .7v.7h.6c.1 0 .1 0 .1-.1l.1-.1v-.4l-.1-.1s-.1 0-.2-.1-.1 0-.2 0l-.3.1z"/></g><g id="text28" transform="translate(94.726 47.211)"><path id="path41" class="st11" d="M625.1 1212.9h2.9v.7h-1v2.6h-.9v-2.6h-1v-.7z"/></g></g><path class="st2" d="M683.6 968.5v1.7l-.4.4-.4-.4v-2.6l.8.9zm0 2.7v2.2l-.4.4-.4-.4v-2.2l.4-.4.4.4zm-.7-3.7h2.5l.4.4-.4.4h-1.7l-.8-.8zm.7 2.7h1.7l.4.4-.4.4h-1.7l-.4-.4.4-.4zm2.2 3.6-1.7-2v-.6h.6l1.7 2v.6h-.6zm.4-5.3v1.7l-.4.4-.4-.4v-1.7l.4-.4.4.4zm1.6 2.7v2.1l-.4.4-.4-.4v-3.2l.4-.4.4.4v1.1zm-.8-2.6.4-.4.4.4v.5l-.4.4-.4-.4v-.5zm2.1 4.6-.4-.4v-2.6l.4-.4.4.4v2.6l-.4.4zm.1-3.6.4-.4h1.7l.4.4-.4.4h-1.7l-.4-.4zm0 3.8.4-.4h1.7l.4.4-.4.4h-1.7l-.4-.4zm3.3-.1v-3.1l.4-.4.4.4v3.1l-.4.4-.4-.4zm0-4.2v-1.2l.4-.4.4.4v1.2l-.4.4-.4-.4zm2.6.9h-1.7l-.4-.4.4-.4h1.7l.4.4-.4.4zm.1 3.4v-2.7l.4-.4.4.4v2.7l-.4.4-.4-.4zm0-.1v-3.1l.4-.4.4.4v3.1l-.4.4-.4-.4zm2-3.4.4.4v3.1l-.4.4-.4-.4v-3.1l.4-.4zm.6.2-.5-.4.4-.4h.8l.4.4-.4.4h-.7zm0 0-.5-.4.4-.4h.8l.4.4-.4.4h-.7zm1.2-.2.4.4v2.7l-.4.4-.4-.4v-2.7l.4-.4zm.7.2-.5-.4.4-.4h.8l.4.4-.4.4h-.7zm1.3-.3.4.4v3.1l-.4.4-.4-.4v-3.1l.4-.4zm1.2 3V970l.4-.4.4.4v2.8l-.4.4-.4-.4zm2.6-3h-1.7l-.4-.4.4-.4h1.7l.4.4-.4.4zm0 4h-1.7l-.4-.4.4-.4h1.7l.4.4-.4.4zm.1-1V970l.4-.4.4.4v2.8l-.4.4-.4-.4zm2-3 .4.4v3.2l-.4.4-.4-.4v-3.2l.4-.4zm2.6-.1-.4.4h-1.7l-.4-.4.4-.4h1.7l.4.4zm.1 0 .4.4v3.2l-.4.4-.4-.4v-3.2l.4-.4zm1.2 3.1v-2.6l.4-.4.4.4v2.6l-.4.4-.4-.4zm2.6 1h-1.7l-.4-.4.4-.4h1.7l.4.4-.4.4zm0-3.8h-1.7l-.4-.4.4-.4h1.7l.4.4-.4.4zm.1 2.8v-2.6l.4-.4.4.4v2.6l-.4.4-.4-.4zm0-3.7v-1.2l.4-.4.4.4v1.2l-.4.4-.4-.4z" style="enable-background:new"/><g id="car_number_1_"><path class="st1" d="M631.3 1084.4h13.5v4.3h-13.5v-4.3z"/><path d="M631.9 1084.9h13.3v4.7h-13.3v-4.7z" style="fill:none"/><text id="car_number" transform="translate(631.907 1088.352)" style="font-size:4.9158px;font-family:'DINAlternate-Bold';fill:#919191">3011</text></g><linearGradient id="SVGID_2_" gradientUnits="userSpaceOnUse" x1="3390.005" y1="1639.159" x2="3318.774" y2="1637.016" gradientTransform="matrix(-.9361 -.04266 .03062 -.6724 3900.582 2205.643)"><stop offset="0" style="stop-color:#936126"/><stop offset="1" style="stop-color:#acb448"/></linearGradient><path d="M857.7 860.9c-41.1 16.9-64.4 51.9-52.9 85.1 11.5 33.4 22.5 96.5-21.6 116.6 33.2-17.2 31.4-75.6 10.7-109.4-22-36.2 17.9-84.9 63.8-92.3z" style="fill:url(#SVGID_2_)"/><linearGradient id="SVGID_3_" gradientUnits="userSpaceOnUse" x1="3407.447" y1="1454.798" x2="3345.829" y2="2053.512" gradientTransform="matrix(-.9361 -.04266 .03062 -.6724 3900.582 2205.643)"><stop offset="0" style="stop-color:#936126"/><stop offset="1" style="stop-color:#acb448"/></linearGradient><path d="M766.3 701.3c209.4 73.2 52.2 139 24.7 167.3-56.6 58.3 2.1 102.6 5.6 134.6 3.7 34-7.6 93-24 93.5 11.1-2.5 28.4-53.8 21-92.3-8.3-43.5-68.8-117.1-16.5-142 73.1-34.7 148.8-94.7-10.8-161.1z" style="fill:url(#SVGID_3_)"/><linearGradient id="SVGID_4_" gradientUnits="userSpaceOnUse" x1="555.646" y1="1230.336" x2="529.993" y2="1822.674" gradientTransform="matrix(.8946 -.2788 -.304 -.9756 215.738 2509.634)"><stop offset="0" style="stop-color:#936126"/><stop offset=".51" style="stop-color:#d19c2a"/><stop offset="1" style="stop-color:#acb448"/></linearGradient><path d="M96.6 611C-17.8 921.4 216.3 875.9 311.3 861.2c136.4-21.1-97 172.6 147.6 260.4-212.5-75.8-25.8-303.2-112.8-280.5C315.8 849.1 5 937.5 96.6 611z" style="fill:url(#SVGID_4_)"/><linearGradient id="SVGID_5_" gradientUnits="userSpaceOnUse" x1="2003.98" y1="1601.618" x2="1917.605" y2="1599.019" gradientTransform="matrix(-.4578 .3321 -.6001 -.8272 2215.081 1654.305)"><stop offset="0" style="stop-color:#936126"/><stop offset="1" style="stop-color:#acb448"/></linearGradient><path d="M315.6 897.6c-21.6 105.3 116.5 52 100 157.2-1.2-90-160.9-83.7-100-157.2z" style="fill:url(#SVGID_5_)"/><linearGradient id="SVGID_6_" gradientUnits="userSpaceOnUse" x1="876.974" y1="-119" x2="876.974" y2="-634.99" gradientTransform="translate(0 1120)"><stop offset="0" style="stop-color:#936126"/><stop offset=".51" style="stop-color:#d19c2a"/><stop offset="1" style="stop-color:#acb448"/></linearGradient><path d="M913 485c-118.2 131.4 2.7 195.5 23.6 214 31 27.5-147.8 91-134.5 135.6 7 23.3 38.1 42.3 49.2 103.6 9 49.3-45.7 62.8-45.7 62.8s58.9-1.3 50.9-59.5-33.6-86.8-41.2-113.7c-5.9-21.1 163.3-101.4 133.8-130.2C917.7 666.9 817 632.9 913 485z" style="fill:url(#SVGID_6_)"/><path d="M1064.9 803.8c-8.2-8.1-21.7-8.4-30.8-1.5 1.7.4 3.4.9 5.1 1.3.1.3 0-.5 0-.6 0 .3.1-.1.1-.2.1-.4.4-.9.7-1.4.7-1.1 1.5-2 2.3-3 1.7-2 3-3.8 3.4-6.5.3-2.1.1-4.5-1.1-6.4-1.4-2.2-3.8-3.2-6.3-2.5-1 .3-1.9 1.1-2.1 2.1-1.3 5.8-3 11.5-4.7 17.2 1.7-.4 3.4-.9 5.1-1.3-3.7-3-6.5-6.7-8.4-11.1-.5-1.1-2.3-1.8-3.4-1.4-3.4 1.3-7 2.8-10.1 4.7-1.7 1.1-3.1 2.6-3.2 4.7-.2 2.1.9 3.9 2.3 5.4 4.8 5.1 12.4 7.6 19.3 8-1-1.3-2-2.6-2.9-3.9-.9 3.1-1.7 6.2-2.4 9.4-.3 1.3.2 2.7 1.4 3.4 1.3.7 2.6.4 3.7-.5 2.3-1.8 4.4-3.8 5.7-6.4.7-1.4 1.5-3.1 1.9-4.7.3-1.2-.2-2.4-.5-3.5-.3 1-.5 2-.8 3 .3-.2.5-.4.8-.6 1.6-1.3.9-3.8-.6-4.8-.1-.1-.3-.2-.4-.2l-1.5 5.7c.3 0 .6 0 .9.1-.5-.1-1-.3-1.5-.4 4.8 3.4 10.2 6.9 16.3 6.9 5.6 0 10.8-2.9 12.8-8.2.6-1.5-.7-3.3-2.1-3.7-1.7-.5-3.1.6-3.7 2.1.1-.3-.1.3-.2.3-.1.2-.3.5-.4.7.2-.3-.2.2-.2.3l-.6.6c-.3.3-1.5 1-1.9 1.2-.9.4-2.1.6-2.7.7-1.2.1-2.1 0-3.1-.1-2.5-.5-4.8-1.7-7-3-1.2-.7-2.4-1.6-3.5-2.4-1-.7-1.9-.9-3.1-1-1.3-.1-2.6 1-2.9 2.2-.4 1.3.3 2.7 1.4 3.4.1.1.3.2.4.2l-.6-4.8c-.3.2-.5.4-.8.6-.8.7-1 2-.8 3 .2.6.3 1.3.5 1.9v-1.6c-.7 2-1.1 3-2.2 4.8-.2.3-.1.2 0 0-.1.2-.3.3-.4.5l-.9.9c-.8.8-1.7 1.5-2.6 2.2l5.1 3c.7-3.2 1.5-6.3 2.4-9.4.6-2-1-3.8-2.9-3.9-4.9-.3-9.7-2-13.6-5-.1-.1-2.2-1.9-2-2.1.1 0-.1.6-.1.6 0 .2 0-.1.2-.2-.2.1.3-.2.4-.2.3-.2.6-.3.9-.5 2.5-1.3 5-2.5 7.6-3.5-1.1-.5-2.3-.9-3.4-1.4 2.1 4.8 5.3 9 9.4 12.3 1.8 1.4 4.4 1 5.1-1.3 1.7-5.7 3.4-11.4 4.7-17.2l-2.1 2.1c.4-.1.1 0-.1 0 .7.2-.5-.1-.1 0s-.5-.3-.2-.1-.5-.4-.1 0c-.1-.1-.3-.4-.1-.1.1.1.1.3.2.4-.3-.6 0 .3.1.5.1.3 0 .5 0 .1v1s-.1.8 0 .4-.1.2-.1.3c-.1.2-.1.4-.2.7s-.1.3 0 0l-.3.6c-.2.4-.1.2-.5.7s-.8.9-1.2 1.4c-.9 1-1.7 2-2.4 3.1-1.5 2.2-2.2 4.7-1.7 7.3.2 1 1.2 1.9 2.1 2.1 1.2.3 2.1-.1 3-.8 3.1-2.4 7.3-3.4 11.3-3.2 3.9.2 7.9 1.8 10.8 4.7 2.6 2.9 6.9-1.4 4.1-4.2zM121.1 411.5c-3.9-2-8-1.6-11.8.3-3.9 1.9-6.7 5.1-9.2 8.5 1.9.2 3.7.5 5.6.7-.6-4-1.2-8.1-1.7-12.1-.2-1.5-2-2.4-3.3-2.2-1.6.2-2.5 1.4-2.6 3-.5 5-1.1 10-1.6 15.1 1.3-1 2.6-2 3.9-2.9.7 1 1.5 2 2.2 2.9.8-8.2-4.4-16.1-12-19-1.8-.7-3.9 1.1-3.9 2.9.1 5 .9 9.9 2.4 14.7l3.7-3.7h-.1c.6.5 1.2.9 1.8 1.4-2.2-2.9-5.6-4.5-9.3-4-3.6.5-6.4 3.1-7.5 6.5-1.1 3.2-.2 6.8 2.1 9.3 2 2.2 5.1 3.2 8.1 3.2 3.5 0 6.9-1.2 9.5-3.4l-4.8-.6c.9 1.7 2 3.5 3.8 4.4 1.9.9 4.1.8 5.9-.3 3.9-2.2 4.5-6.6 4-10.7l-3 3c5 .6 10.4.3 14.5-2.9 3.7-2.9 6-7.4 4.8-12.1-1-3.8-6.8-2.2-5.9 1.6.3 1 .1 2.1-.4 3.1-.6 1.2-1.6 2.3-2.7 3-2.9 1.9-6.9 1.7-10.3 1.3-1.5-.2-3.2 1.5-3 3 .1 1.1.3 2.3.2 3.4-.1 1-.4 1.5-.8 1.8-.1.1-.5.3-.5.3-.4.1.5-.3-.3 0 .1 0 .3 0 .4.1-.4-.4-.9-1.4-1.3-2.1-1-1.9-3.4-1.8-4.8-.6-.4.4.3-.1-.3.2-.3.1-.5.3-.8.5-.6.3-.6.3-1.4.6-.3.1-.6.2-.9.2-.1 0-.9.2-.7.1h-1.6c-.1 0-.9-.1-.6 0 .3 0-.6-.2-.7-.2s-.9-.3-.4-.1c-.3-.1-.5-.2-.8-.4-.1-.1-.7-.5-.3-.2l-.6-.6c.3.4-.1-.2-.2-.3 0-.1-.4-.8-.2-.4-.3-.8-.2-.7-.2-1.4 0-.9-.1.4.1-.5l.3-.9c-.2.4.3-.4.3-.4.4-.7-.2.2.3-.4 0 0 .7-.6.4-.4 0 0 .8-.5.5-.3 1.1-.5 1.9-.4 3 0 .2.1.8.5 1 .7.1.1.5.6.9.9s.7.4 1.1.6c2.2.7 4.4-1.5 3.7-3.7-1.3-4.2-2.1-8.6-2.2-13-1.3 1-2.6 2-3.9 2.9 5.1 2 8.1 7.7 7.5 13.1-.1 1.3 1 2.6 2.2 2.9 2.1.6 3.7-1.1 3.9-2.9.5-5 1.1-10 1.6-15.1-2 .3-4 .5-6 .8.6 4 1.2 8.1 1.7 12.1.2 1.2 1.5 2.1 2.5 2.2 1.3.2 2.3-.4 3-1.5 1.8-2.4 3.7-4.5 6.4-5.9.9-.5 2.2-1 3-1.1 1.3-.2 2.3 0 3.3.5 1.5.8 3.3.4 4.2-1.1.7-1.6.3-3.6-1.2-4.4z"/><linearGradient id="SVGID_7_" gradientUnits="userSpaceOnUse" x1="304.328" y1="104.21" x2="233.524" y2="-464.811" gradientTransform="rotate(7.637 -6624.063 1411.956)"><stop offset="0" style="stop-color:#936126"/><stop offset=".202" style="stop-color:#976427"/><stop offset=".377" style="stop-color:#a26e28"/><stop offset=".542" style="stop-color:#b5802a"/><stop offset=".696" style="stop-color:#d19c2a"/><stop offset="1" style="stop-color:#acb448"/></linearGradient><path d="M488.1 432.3c-42.5-87.7-113.2-112.6-201.8-19.1-59.1-23.3-124.1 4.7-147.5 69.3-85.4 235.4 180.9 319.8 288 198.2 17.9-31 16.8-74-7.3-98.7-2.8 58.9-14.3 115.7-94.1 120.8 91.2-5.8 51.7-129.5 20-65.8-38.2 76.7-57.1-78.1 17.4-87.6C520.2 529 511.4 697.5 510 748.3c-2.6 94.4 9.9 92.5-3.2 178.8 134.9-526.2-276.6-436.9-253.6-275.4 6.7 47.1-37.6-109.2 42-114.9 50.8-3.7 5.1-87.8 99.5-77.9 43.7 4.6 34.1 51.8 79.1 63.9 63.6 17.1 197.8-2.5 79.1 116.2-22.5 22.5 62.9 96 89 64.3 212.5-103.9-67.8-393-153.8-271z" style="fill:url(#SVGID_7_)"/><g><path d="m753.9 374.4-16.8 10c-3.1-5.5-6.1-9-9-10.7-3-1.9-6.8-2.8-11.5-2.8-5.7 0-10.5 1.6-14.3 4.9-3.8 3.2-5.7 7.2-5.7 12.1 0 6.7 5 12.1 14.9 16.2l13.7 5.6c11.1 4.5 19.3 10 24.4 16.5 5.2 6.5 7.7 14.4 7.7 23.9 0 12.6-4.2 23-12.6 31.3-8.5 8.3-19 12.4-31.5 12.4-11.9 0-21.7-3.5-29.5-10.6-7.6-7-12.4-17-14.3-29.8l21-4.6c.9 8.1 2.6 13.6 5 16.7 4.3 5.9 10.5 8.9 18.7 8.9 6.5 0 11.8-2.2 16.1-6.5s6.4-9.8 6.4-16.4c0-2.7-.4-5.1-1.1-7.3-.7-2.2-1.9-4.3-3.5-6.1-1.6-1.9-3.6-3.6-6.1-5.2s-5.5-3.2-8.9-4.7l-13.2-5.5c-18.8-7.9-28.2-19.6-28.2-34.8 0-10.3 3.9-18.9 11.8-25.9s17.7-10.5 29.4-10.5c15.9-.2 28.3 7.5 37.1 22.9zm23.1 30.2h20v8c3.9-4 7.1-6.8 9.9-8.2 2.9-1.5 6.5-2.2 10.9-2.2 9.8 0 17.5 4.3 23.2 12.8 6.3-8.5 14.8-12.8 25.5-12.8 19.5 0 29.2 11.8 29.2 35.5v53.5h-20.1v-48.1c0-8.3-1-14.2-3-17.6-2.1-3.5-5.5-5.2-10.2-5.2-5.5 0-9.5 2.1-12 6.2s-3.8 10.8-3.8 20v44.7h-20.1v-47.8c0-15.4-4.4-23.1-13.3-23.1-5.6 0-9.7 2.1-12.3 6.3-2.6 4.2-3.9 10.8-3.9 19.9v44.7h-20v-86.6zm221.2 48h-62c.5 7.1 2.8 12.8 6.9 17 4.1 4.1 9.3 6.2 15.7 6.2 5 0 9.1-1.2 12.4-3.6 3.2-2.4 6.8-6.8 10.9-13.2l16.9 9.4c-2.6 4.4-5.4 8.3-8.3 11.4-2.9 3.2-6 5.8-9.3 7.8s-6.9 3.5-10.8 4.5c-3.9.9-8 1.4-12.5 1.4-12.9 0-23.3-4.1-31.1-12.4-7.8-8.4-11.7-19.4-11.7-33.2 0-13.7 3.8-24.8 11.4-33.2 7.6-8.4 17.8-12.5 30.4-12.5 12.7 0 22.8 4.1 30.2 12.2 7.3 8.1 11 19.2 11 33.5l-.1 4.7zm-20.6-16.4c-2.8-10.7-9.5-16-20.2-16-2.4 0-4.7.4-6.8 1.1s-4.1 1.8-5.8 3.2c-1.7 1.4-3.2 3.1-4.5 5s-2.2 4.2-2.8 6.7h40.1zm60.8-95.2v150.1h-20V341h20zm43.7 0v150.1h-20V341h20zm74 78.3-16.5 8.8c-2.6-5.3-5.8-8-9.7-8-1.8 0-3.4.6-4.7 1.8-1.3 1.2-2 2.8-2 4.7 0 3.3 3.9 6.6 11.6 9.9 10.6 4.6 17.7 8.8 21.4 12.6 3.7 3.9 5.5 9 5.5 15.6 0 8.4-3.1 15.3-9.2 21-6 5.3-13.2 8-21.7 8-14.5 0-24.8-7.1-30.8-21.2l17.1-7.9c2.4 4.1 4.2 6.8 5.4 7.9 2.4 2.3 5.3 3.4 8.7 3.4 6.8 0 10.1-3.1 10.1-9.2 0-3.6-2.6-6.9-7.8-10-2-1-4-2-6-2.9s-4.1-1.9-6.1-2.9c-5.8-2.8-9.9-5.7-12.3-8.5-3-3.6-4.5-8.3-4.5-14 0-7.5 2.6-13.7 7.7-18.7 5.3-4.9 11.7-7.4 19.2-7.4 10.9-.1 19.2 5.6 24.6 17z" style="fill:#7b471b"/></g><g><path class="st10" d="m84.1 233.3-6.3 73.1-58.2 53.9 11.6-140.5 22.3-20.2 30.6 33.7zM29 370.6l58.6-53.9h101.6l24.9 26.9-29.5 26.9H29v.1zm8-211.9L49.1 18.5l49.4 53.9-6.3 72.9-37 34.2L37 158.7zM240.8 34.6l-29.5 27.2H109.7L60.5 7.9H216l24.8 26.7zm-31.6 127.7 24.9 26.9-29.5 26.9h-115l-24.4-26.9 29-26.9h115zm44.6 144.1-29.6 26.9-24.4-27 6.3-73.1 36.7-33.7 18.1 20.2-7.1 86.7zm12.8-147.7-22.3 20.7-30.6-34.2 6.3-73.1 29.6-26.9 24.4 27-7.4 86.5zm108.1 74.6-7.2 83.4-58.8 54 13.1-150.9 22.3-20.2 30.6 33.7zm-47.6-74.6 12.2-140.2 49.4 53.9-6.3 72.9-37 34.2-18.3-20.8zM560 7.9l-58.6 53.9H399.9L350.7 7.9H560zm-60.6 154.4 24.9 26.9-29.5 26.9h-115l-24.4-26.9 29-26.9h115zm52 57.6-13.1 150.9-49.4-54 7.2-83.4 37-33.7 18.3 20.2zm-47.7-74.7 6.4-74 58.7-53.1-12.2 140.6-22.3 20.7-30.6-34.2zm161.2 88.1-7.2 83.4-58.8 53.9L612 219.9l22.3-20.2 30.6 33.6zm-47.6-74.6 12.2-140.2 49.4 53.9-6.3 72.9-37 34.2-18.3-20.8zM821.2 34.6l-29.5 27.2H690.1L640.9 7.9h155.5l24.8 26.7zm-31.6 127.7 24.9 26.9-29.5 26.9H670l-24.4-26.9 29-26.9h115zM686 267l3.6-38.3 38.7.2 94.9 103-3.6 38.8h-38.8L686 267zm161.1-108.3-22.3 20.7-30.6-34.2 6.1-73.1 29.6-26.9 24.4 26.9-7.2 86.6zm278.7-124.1-30.1 27.2H896.3l-24.4-27.2 29-26.7h199.5l25.4 26.7zM998.4 345.8l-28.8 26.8-24.7-26.8 9.7-112.5 36.6-33.7 18.1 20.2-10.9 126zm16.5-187.6-22.3 20.7-30.6-34.2 3.6-41.5 29.5-26.9 24.4 26.9-4.6 55z"/></g></svg>