<svg version="1.1" id="Layer_1" xmlns="http://www.w3.org/2000/svg" x="0" y="0" viewBox="0 0 1200 1200" style="enable-background:new 0 0 1200 1200" xml:space="preserve"><style>.st2{fill:#fff}</style><path d="m85.2 243.2-6.4 74.5-59.4 55 11.8-143.2L54 208.8l31.2 34.4zM29 383.2l59.7-54.9h103.6l25.4 27.5-30.1 27.5H29zm8.2-216.1 12.3-143 50.4 55-6.4 74.3-37.7 34.8-18.6-21.1zM245 40.6l-30.1 27.7H111.4L61.2 13.4h158.5L245 40.6zm-32.2 130.2 25.4 27.5-30.1 27.5H90.8L66 198.3l29.6-27.5h117.2zm45.5 146.9L228 345.2l-24.9-27.5 6.4-74.5 37.4-34.4 18.4 20.6-7 88.3zm13-150.6-22.8 21.1-31.2-34.9 6.4-74.5 30.2-27.5 24.9 27.5-7.5 88.3zM381.6 243.2l-7.4 85.1-59.9 55.1 13.3-153.9 22.8-20.6 31.2 34.3zM333 167.1l12.4-143 50.4 55-6.4 74.3-37.7 34.8-18.7-21.1zM570.5 13.4l-59.7 54.9H407.2L357 13.4h213.5zm-61.8 157.4 25.4 27.5-30.1 27.5H386.6l-24.8-27.5 29.6-27.5h117.3zm53 58.7-13.3 153.9-50.4-55.1 7.4-85.1 37.7-34.3 18.6 20.6zm-48.6-76.2 6.5-75.4 59.9-54.2L567.1 167l-22.8 21.1-31.2-34.8zM677.4 243.2l-7.4 85.1-59.9 54.9 13.3-153.7 22.8-20.6 31.2 34.3zm-48.5-76.1 12.4-143 50.4 55-6.4 74.3-37.7 34.8-18.7-21.1zM836.8 40.6l-30.1 27.7H703.1l-50.2-54.9h158.5l25.4 27.2zm-32.2 130.2 25.4 27.5-30.1 27.5H682.5l-24.8-27.5 29.6-27.5h117.3zM698.9 277.5l3.7-39.1 39.5.2 96.8 105-3.7 39.6h-39.6l-96.7-105.7zm164.3-110.4-22.8 21.1-31.2-34.9 6.2-74.5 30.2-27.5 24.9 27.5-7.3 88.3zM1166 40.6l-30.6 27.7H931.9l-24.8-27.7 29.6-27.2h203.4l25.9 27.2zm-130 317.2-29.4 27.3-25.2-27.3 9.9-114.7 37.3-34.4 18.5 20.6-11.1 128.5zm16.9-191.2-22.7 21.1-31.2-34.9 3.7-42.3 30.1-27.5 24.8 27.5-4.7 56.1z"/><g id="train"><path d="M727 1180.6c5.4.5 10.8 1.2 16 3.1.9.3 2.1.2 3.1.3-1.6 1.6-3.3 3.1-4.9 4.7-1.6 1.5-3.1 3-4.7 4.4-2.7-.4-5.2-1.3-6.3-4.1-1.1-2.7-2.1-5.6-3.2-8.4zM701.6 1127.9c-71.1.8-142.1.5-213.3.6 6.8 1.8 17.6.1 25.5.8 58.6-1 139.2 2.6 187.8-1.4zM375.2 1078.9h-.5c0 .7 0 1.4.1 2.2 1.1 6.2 2.2 12.3 3.4 18.5h.8c-.5-3.6-1-7.3-1.6-10.9-.7-3.3-1.5-6.6-2.2-9.8z"/><path d="M385 1133c-.7-3.6-1.3-7.3-2-10.9-.7-3.9-1.5-7.9-2.2-11.8-.6-3.6-1.2-7.2-1.9-10.8h-.8l2.1 10.8c.1 1 .2 2.1.3 3.1.5 3.1 1 6.1 1.5 9.1.7 3.4 1.4 6.9 2.1 10.3-.8 1.6-2.1 2.3-3.9 1.9-2.6-.6-5.2-1.1-7.8-1.7-2.8-.7-5.6-1.4-8.3-2 .2.7.3 1.3.5 2 2.7.4 5.4.8 8 1.3 3.8.8 7.5 2.3 11.5.9.2-.3.3-.7.5-1 .1-.2.2-.3.3-.5.1-.1.1-.4.1-.7zM829.2 1141.3c-4.7 9.7-16.3 26.4-32.5 32.5-15.2 5.7-45.7 9.8-48.9 10.1-6.6.5-6.5 5.6-11.2 9.3 16.5 2.8 33.5-2.3 50-3.7 33-3.2 41.6-22.2 47.1-52-1.6 1.2-3.6 2.2-4.5 3.8zM651.7 1018.8c0 1.9 0 3.9.1 5.8 0 .2-.1.5-.2 1-7.2 0-14.5-.1-22.1-.1v-6.9c.5.1 1 .1 1.5.2-.2.5-.3 1-.6 1.7.9-.3 1.5-.5 2.1-.8.1.1.3.2.4.4-.4.6-.8 1.3-1.2 2 .5.3 1.1.6 2.2 1.2-.3-1.9-.6-3.2-.8-4.5 1.2.1 2.4.3 3.6.4-.2 1.4-.5 2.8-.5 4.2 0 .6 1 1.5 1.5 1.6.6 0 1.7-.8 1.8-1.3.1-1.4-.2-2.9-.4-4.4 1.5-.2 3-.3 4.5-.5-.7.8-.2 4.7.8 5.9v-5.9h4.5c-.3.5-.7 1-1 1.5h.8c.3 1.5.6 2.9.9 4.4.2 0 .4 0 .6-.1v-5.8c.6.1 1.1.1 1.5 0zM695.5 831.5V827h12.4v4.6z"/><path d="M815.9 982.6c-5.9-58.7-18.1-158-19.2-175.8 0-.6-.1-1.2-.3-1.7-.3-.8-.7-1.6-1.1-2.3-4.1-6.2-16.8-10.8-32.8-14-10.3-1.5-23.6-2.9-40.9-5.2-5.3-.6-10.5-1.1-15.6-1.6-24.3-1.6-43.9-1.8-43.9-1.7-5-.1-76.3-.4-112.7.1-6.9.3-14.6.6-23 1.1-42.3 2.5-127.7 9.6-129 20.7-1.4 35.3-15.6 138.2-16.7 185.8 4.5 2.5 9.1 4.7 13.9 6.8 29.2 9.3 70.3 16 102.7 21 11.6 1.2 22.7 2.4 32.8 3.9 17.1-.1 33.9.1 50.3.3 19.8 0 41.1.1 58.3.1 11.8-.2 23.6-.6 35.4-1.4 24-4 99.7-15.9 138.9-29.7 2.8-1.6 3.3-3.6 2.9-6.4zM519 990.2c-81.9.3-86.4-16.6-122.4-13.7 0 .8 17.1-169 17.1-169l106.4-6.2c0-.1-2.6 189.7-1.1 188.9zm103.3 3.7-51.3-.3.9-141.6 51.3.3-.9 141.6zm51.3-2.7c1.5.8 1.1-189 1.1-189l106.3 7.5s15 170 15 169.2c-35.9-3.3-40.6 13.5-122.4 12.3z"/><path d="M854.8 1009c-4.4-48.3-11.1-96.4-17-144.5-1.1-11.7-3-23.2-4-34.9-.7-5.4 0-42-7.9-49.5-98.6-23.4-203.2-29.1-304.9-21.3 0 .2-93.5 13.2-111.7 16.1-20.8 2.9-41.2 10.9-43.2 35.1-4.7 83.5-30.9 168-18.4 251.2 5.4 23.3 10.6 46.6 16.6 69.8 5.4 1.4 10.7 2.6 16.1 3.8 1.8.4 3.1-.4 3.9-1.9-1.2-6.6-3.1-18.3-4.4-28.8 1.1 6 2.2 12 3.2 18 6.5 19.8-5.3 12.6-18.4 10.9 2.8 14.1 6.1 28.8 14.3 40.8l6.9 6.6c11 10.2 71.3 17.9 76.9 7.9 8.4-9.7 9.7-62.6 19.7-61.7 64.3-2.3 155.5 0 221.9-.2 3.7.1 8.6-.3 9.9 4 2.9 10.2 4.5 21.1 7.8 31 1.7 6.4 3.3 12.8 5 19.2 2.9 3.1 10.7 3.7 20 3v.2l3.9-.3c2.6-.4 5.1-.8 7.7-1.2 4.3-.6 8.6-1.4 12.6-2.1 4.1-.7 8.1-1.5 12.2-2.4 2.8-.5 5.5-1.2 8.2-1.9l1.5-.9c18.6-7.1 18.4-7.4 25-14.5 4.2-4.6 7.9-16.7 15.5-23.3 4.4-19.9 11-39.7 13.5-59.9 5.6-22.1 9.5-45.3 7.6-68.3zm-32.7-10.5c0-.1 0-.1 0 0 0-.1 0-.1 0 0zm-431.9-183c-.7 10-1.6 20.2-2.6 30.3l2.6-30.3zM596.4 1108l29.2.1c-9.6 0-19.4 0-29.2-.1zm125.7 53.5c.2.1.4.1.6.2-.2-.1-.4-.2-.6-.2zm41.1-156.8c-30.3 7.9-59.6 11.9-88.9 13.8-4.7.8-7.5 1.3-7.5 1.4h-27.9c-19.2.4-38.6.1-58.3-.1-27.6-.1-52.2-.2-58.6-.3v-.2c-7.2-1.1-15.6-2.4-24.6-3.8-33.5-3.6-71.2-7.6-102.7-21-5-1.6-9.7-3.3-13.9-5v-1.7c-.4-.2-.7-.4-1.1-.6 4.3-61.5 15-168.9 17.4-184.7 1.9-12.5 76.6-18.4 129.3-21.1.7 0 1.4-.1 2-.1 0-.4 8.4-.7 21-.9.7 0 1.5-.1 2.2-.1 56.7-.8 102.3-3 154.4 1.7 18.3 1.2 39.3 3.3 56.5 6.8 19.3 2.8 28.2 5.6 32.8 14 .5.7.8 1.5 1.1 2.3 4.6 11.1 3.9 30.6 8 67.6 3.7 36.7 12.7 111.7 11.6 114.2-2.2 5.2-34.6 13.1-52.8 17.8zm53.6 131.3c-11.2 1-.9-19-1.6-25.5 1.4-9.9 3.6-19.6 5-29.5 0 0 1.1 2.5-3.2 25-5.6 35.5-11.3 29.3 14.1 26.8-3.1 2.5-10.2 1.7-14.3 3.2zm16.1-5.7v-2.3.1c.1.8.1 1.5 0 2.2zm-.1-7.7c.1-2.4.6-4.6 2.2-6.7l.1-.1c-1 2.1-1.9 4.3-2.3 6.8zm4.8-16.6c0 3.4-1.1 6.3-2.3 9.1.1-.4.1-.8.2-1.1l2.2-10.1c0 .7 0 1.4-.1 2.1zm7.8-29.3c.6.2 1.1.4 1.7.7-.5-.1-1.1-.3-1.7-.7z" style="fill:none;stroke:#000;stroke-width:3.7019;stroke-miterlimit:10"/><path d="M456.5 1187.4c-76.9-3.3-89.8-25-67-4.5 22.9 9.2 49.4 11.4 63.2 9.6 10.9-1.4 14-4.7 3.8-5.1zM833.1 1024.8l3.6-37.5c.1-1.6.7-2.1 2.2-2l6.9.6.3-.6c-.6-.4-1.2-1.2-1.9-1.3-2.3-.3-4.7-.6-7-.5-.7 0-2 1.1-2.1 1.9-.6 4.5-.9 9-1.2 13.6-.6 8.6-1.1 17.2-1.7 25.8-.1 2.6-.2 5.2-.4 7.8-.1 1-.2 1.9-.3 2.9-.3 3-.6 6-.8 8.9-.3 5.2-.6 10.3-.9 15.5-.4 6.4-.9 12.7-1.3 19.1-.3 2.8-.6 5.5-.8 8.3v1c-.6 6.5-1.1 13-1.7 19.5 0 .6-.1 1.1-.1 1.7-.1 3.3.1 3.6 3.4 3.9 2.1.2 4.2.3 6.3.5.6-.8 1.4-1.6 1.6-2.5.4-1.8.4-3.7.5-5.5.5-7.1.9-14.2 1.3-21.3.2-3.1.5-6.2.7-9.3h-.8c-.2 3.1-.5 6.2-.7 9.3-.7 7.9-1.3 15.8-2 24.2-3.2-.4-6.2-.7-9.2-1.1.6-7.3 1.1-14.5 1.7-21.8.2-2.3.4-4.6.6-7 .5-5.6 1-11.1 1.6-16.7.4-4.5.8-9 1.3-13.5.1-.5 1-1.2 1.7-1.4.6-.2 1.4-.1 2.2-.1-.7-.4-1.4-1-2.1-1-1.8 0-2.5-.7-2.3-2.4.3-2.6.5-5.2.8-7.9-.1-.2-.1-.3-.2-.5l.3-3c.1-2.4.2-5 .5-7.6z"/><path d="M843.4 1020.6h-.5c-.6 7.4-2.4 28.8-2.6 38.4-.1.5-.1.8-.2.8-.4 4.7-.9 9.3-1.3 14v1.7h.8c.1-.2.1-.4.2-.6.2-3 .7-11.6 1.2-19.3 1.3-10.5 2.2-28.5 2.4-35zM843 974.5c-.7-5.3-1.3-10.6-1.9-15.9h-1.4c.4 3.4.7 6.7 1.2 10.1.3 2 .3 3.7-2.5 3.8-1.3 0-2.6.2-3.9.4-1.5.3-2.9.3-3.4-1.7.2 2.1.5 4.1 1.1 6 .1.5 1.2 1 1.9.9 2.2 0 4.4-.3 6.5-.5 1.9-.2 2.7-1.1 2.4-3.1zM826.5 926.3c-.2 0-.4 0-.5.1l4.5 41.4c.3 0 .7 0 1-.1-1.8-13.8-3.4-27.6-5-41.4zM838.1 931.3c-.4-3.2-.9-6.4-1.4-9.5-.4-5.2-.7-10.3-1.2-15.5-.7-7.5-1.6-15.1-2.5-22.6-.7-6-1.3-12-1.9-18-.6-5.2-1.1-10.5-1.8-15.7-.1-.6-1-1.7-1.5-1.7-2.6 0-5.2.2-7.8.5-.6.1-1.1.7-1.6 1.1 2.5.2 4.8-.1 7-.3 1.4-.1 2.2.1 2.4 1.9.4 4.8 1.1 9.5 1.6 14.2 1.4 12.2 2.8 24.5 4.1 36.7.3 2.6.5 5.2.7 7.8-2.1.3-3.7.5-5.2.7-3.6.6-3.7.6-4.2-3-.8-6.7-1.5-13.5-2.3-20.3-.9-7.5-1.8-15-2.6-22.5-.3 0-.6.1-.9.1.9 7.4 1.8 14.9 2.7 22.3.9 8.2 1.7 16.3 2.6 24.6 1.8-.2 3.2-.4 4.7-.6.6 0 1.1 0 1.7-.1 3.5-.4 3.4-.3 3.7 3.1.2 2.1.7 4.3 1.1 6.4 0 1 0 2.5.1 3.5.8 7.3 1.6 14.6 2.5 21.9.5 4 1.1 8 1.7 12h1.4c-1.1-8.9-2.1-17.9-3.1-27z"/><path d="M818.9 854.8c-.2 0-.4.1-.7.1.2 2.7.5 5.4.7 8.1.3 0 .6-.1.9-.1l-.9-8.1zM508.2 1026c0-1.8-1-2.1-2.2-2.1-8.1-.1-16.2-.1-24.4-.1-1.5 0-2.1.6-1.9 2-.1.9-.3 1.7-.3 2.6 0 3.2.1 6.4.1 9.6v14.7h.8c0-2.3.1-4.6.1-6.9.1-5.2.3-10.4.4-15.6 0-1.6.1-3.2.1-4.8.5-.1 1.1-.4 1.6-.4 7.6 0 15.2-.1 22.8 0 .7 0 1.9 1.1 1.9 1.7.1 5.9 0 11.8-.1 17.8 0 2-.1 4 0 6 .1 1.9-.6 2.7-2.5 2.2-3.4-.1-6.8-.2-10.3-.2-2 .2-3.9.3-5.9.5-1.9 0-6.2-.1-8.3-.2 1.3 2.2 5.5 2.2 7.3 2 6-.4 11.9 1.6 18-.9 2.6-1.1 2.9-2.4 2.9-4.6 0-5.2.1-10.4.2-15.5 0-2.6-.4-5.2-.3-7.8z"/><path d="M661.5 762.5c-1.4-6.2-108.7-1.1-127.7.3-1.2-.1-2.5-.1-3.8 0h-.1.1c-4.1.4-3.8 20.4 1.2 17.9 41.9-3.7 90-.6 131-2.6.6-2.8 1.4-13-.7-15.6z" style="fill:none;stroke:#000;stroke-width:3.0849;stroke-miterlimit:10"/><path d="M827.8 1132.9c-3.7.6-7.3 1.6-10.9 2.1-3.5.4-5.1-.3-4.2-4.3.3-1.1.2-2.2.4-3.3 1.3-7.1 2.7-14.2 4-21.3 1-5.3 1.9-10.6 2.8-15.9 0-.8.1-1.6.1-2.4.5-2.6 1.1-5.1 1.4-7.7 1.1-9.4 2.1-18.7 3.2-28.1.5-4.6.9-9.3 1.3-14 0-.3-.1-.8-.1-1.2.3-5.8.6-11.7.4-17.5 0-1.1-.2-11.3-.3-12.4-.2-2.6-.8-8.3-1.3-13.4h.1c-.6-5.8-1.1-11.7-1.7-17.5-.1-1.3-.3-2.6-.4-3.9-.2-2.7-1.4-13.9-1.6-16.5 0-.3 0-.6-.1-.8-.9-7.6-1.7-15.2-2.6-22.8l-1.5-11.4c-.6-5.1-1.3-13.3-1.9-18.3l-5.7-54.9c-.8-7.7-1.6-15.3-2.4-23-.2-2.2-.3-4.3-.5-6.5-.3-3.3-.1-3.5 3.1-4 .6-.1 1.1-.1 1.7-.1 6.8-.1 13.6-.1 20.4-.1v-.8c-7 0-14 0-20.9-.1-2.2 0-3.9.6-5.2 2.4l.6 9.3c.8 7.7 1.6 15.3 2.4 23v1.7c.9 8.4 1.8 16.7 2.7 25.1 1 9.4 2 18.7 3 28.1.5 4.8 1.4 14 2 18.8.4 4.2.9 8.3 1.4 12.5.6 5.8 1.3 11.5 1.9 17.3.2 1.7.5 3.4.7 5.2.3 2.6 1.3 11.5 1.6 14.6v.5c.5 4.8.9 9.6 1.4 14.4.1.6.1 1.2.2 1.8.4 5.8 1.5 22.5 1.9 29.7.1 2.3.1 4.5.2 6.8-.1 4.3-.3 8.6-.4 12.9-.5 6.4-1 13.2-1.6 19.6-.5 4.8-1.2 9.6-1.8 14.4-.7 5.7-1.5 11.4-2.3 17-.3 1.3-.8 2.6-1 3.9-1.1 6.3-2.1 12.7-3.1 19-1.2 6.8-2.4 13.6-3.5 20.5-.6 3.9 1.2 5.6 5.1 5 3.2-.6 6.5-1.1 9.7-1.7 2-.4 4-1 6-1.5-1.5-.3-3.2-.5-4.7-.2zM389.9 815.6c0-.1 0-.1-.3-.1-6.9-.3-16.6-1.2-23.6-1.3v.9c1.3.1 2.5.2 3.8.3 2.9 0 5.9.1 8.8.1 3.4.4 7.4-.6 10.8.9-.2 1.3-.5 3.8-.6 4-.6 5.5-1.2 10.9-1.7 16.4-1.1 10.6-2.1 21.1-3.2 31.7-.3 3-.8 6.1-1.3 9.1 0 1 0 2-.1 2.9-.1 1-.2 2-.2 3-.1.9-.3 1.9-.4 2.8-.3 2.8-.6 5.5-1 8.3-.2 2.7-.4 5.5-.7 8.2-.8 7.6-1.6 15.1-2.5 22.7-.5 4.8-1 9.7-1.5 14.5-1 8.9-1.9 17.9-2.9 26.8-.2.5-.3 1-.5 1.4-.4 2.9-.7 5.9-1.1 8.8.1.2.2.4.3.5-.1 1.9-.2 3.9-.3 5.8-.4 4.3-1 12.6-1.5 18.3-.2.2-.4.3-.4.5-.3 5.8-.5 11.5-.7 17.3v9.8c.5 7.6.9 15.2 1.6 22.7.5 5.7 1.4 11.4 2.2 17 .5 3.3 1.1 6.5 1.7 9.7h.5v-2.9c-.7-4.6-1.3-9.3-2-13.9-.8-5.8-1.7-11.6-2.2-17.4-.4-4.9-.3-9.8-.4-14.7.1-1.5.2-2.9.2-4.4-.1-4-.3-8-.3-12 0-3 .1-5.9.2-8.9.1 0 .2 0 .2-.2.3-4.7 1-16.3 1.3-21.1.3-1.9.6-3.9.9-5.8.5-3.9.9-7.8 1.4-11.8.2-1.6.3-3.2.5-4.8 1-9 2-18 3.1-27 .8-6.6 1.5-13.2 2.3-19.8.7-6.2 1.4-12.4 2-18.6.7-6.8 1.3-13.7 2-20.5.9-9.2 1.9-18.3 2.9-27.5.6-6.2 1.3-12.4 1.9-18.6.3-3.2.9-10.2 1.1-13.4-.1.3-.2.3-.3.3z"/><path d="M378.3 829.6c-.8 0-1.6-.1-2.4-.1-1.7-.2-3.5-.3-5.2-.5-.4 1.3-1 2.6-1.1 3.9-1.3 12.2-2.5 24.3-3.8 36.5-1.4 12.7-2.9 25.4-4.3 38.1-1 9-2.1 18-3 27-.7 6.7-1.3 13.4-2 20.1-.2 1.6.3 2.7 1.7 3.4 2.1.1 4.2 0 6.3.3 1.9.2 2.5-.6 2.5-2.3.1-.2.1-.5.2-.7V953h-.6c-1.7 0-3.4 0-5.1-.1-3.4-.4-3.5-.8-3.1-4.2 1.4-10.7 2.7-21.4 3.9-32.1.9-7.5 1.7-15 2.4-22.5.1-1.3.8-1.9 2.1-1.7 1.9.2 3.9.4 5.8.7.3-.5.7-1.1 1-1.6-2.2 0-4.4-.1-6.6 0-1.7.1-2.3-.7-2.1-2.4.4-3.5.7-6.9 1-10.4 1-9.8 2.1-19.5 3.2-29.3l.1-.1v-.3c-.1.1-.1.3-.1.4 0-.2 0-.3.1-.4.4-3.4.7-6.9 1.1-10.3 0-.2.1-.5.1-.7.2-1.9.3-3.7.5-5.6.1-.2.1-.3.2-.5.5-.4 1-1.1 1.5-1 1.9.1 3.8.4 5.7.6h1.8c.1-.2.1-.4.2-.7-.7-.4-1.3-.8-2-1.2zM370 1089.2c-2.5-21.1-3.6-42.3-5.2-63.4-2.9.2-5.7.4-8.4.6-2.2-13.4-2.1-26.9-4.3-40.3v-2.3h-.2c-.1-1.2-.2-2.5-.1-2.5l-.9-10.5h-.5c.1 3.5.3 7 .4 10.5.2 1 .4 1.8.5 2.5.1.8.1 1.5.2 2.3 1.1 14.1 2 28.3 3 42.4 2.6 21.5 1.8 43.5 6.2 64.7 2.2.5 4.3-.5 6.5-.5 2.5 0 3-1.3 2.8-3.5zm-2.3-2.1c-8.6 2-7.1-1.3-8.3-8.5-1.2-16.5-2.7-33.6-3.9-50.1 2.1-.5 4.9-2.3 8-1.6 2.2 19.6 3.4 40 4.8 59.5-.4.5-.5.7-.6.7z"/><path d="M363.8 1010.8c0-.2-.2-.5-.3-.7-.7-10.9-1.9-30.7-2.8-40.9-.2-1.9.8-4.4-1.8-5.6-3.2.3-6.7-.2-9.5 2.5 3.3-.3 6.2-.5 9.2-.7.3 3.5.5 6.6.8 9.7l2.4 24.9c.2 1.4.5 6.3.7 8.8 0 0 0-.1-.1-.1.1 1 .3 2 .4 3 .3 2.7.5 5.5.7 8.2.2 0 .5 0 .7-.1 0-1.3.1-2.6.1-3.9-.2-1.6-.2-3.4-.5-5.1zM380.6 830.9c-.9.3-1.5 0-1.5.5 0-.1-1.5 22.3-1.6 22.2l-8 71.8s-1.8 18.5-2.9 27.7h.6c1.3-9.6 2.5-19.3 3.6-28.9-.2 0 8.4-81.9 9.8-93.3zM714.3 1130.4c-1.8-8.1-33.5-3.8-42-5.1-1.3-35.6.9-71 .4-106.6-1.2 0-8.4 1.1-9.6 1.1-.1 34.7-1.1 69.5-.2 104.2 1.2 4.3-24.9.9-29 1.9-32.1.5-64.3-.1-96.4-.2v2.5c44.9-.1 89.6.5 134.5-.1 9.9-.3 19.8.2 29.7-.2 2.1-.5.8 2.3 1.2 3.5 0-.6-.1-1.3-.2-2.2-62.3-.1-124.5.7-186.8-.1v-.3c7.2-.2 14.4-.2 21.5-.5v-2.5c-2.2-.2-4.5-.3-7-.5-.7-35.2-.2-70.4-.2-105.7-2.7-.1-5.5-.1-8.2-.2-.4 35.7-1.4 71.3-.3 107.1-14 0-28.1-.6-42 .6-4.7 8.8-6.3 19.7-7.9 29.5 82.9-.7 166-1.3 248.9.4-2.1-8.9-4.1-17.7-6.4-26.6zm-225.9-1.4v-.6c8.5.2 17 .4 25.5.5v.6c-8.5-.1-17-.3-25.5-.5zm135.7 25.4z"/><g><path d="M804.3 1139c-20.3 5.5-65.2 20.6-66.9 25.1-1.5 3.8 1.2 11.2 2.5 15.1 1.1 2.3 2.9 2.5 5.2 2.1 28.5-4.7 47.7-8.8 49.4-10 5.3-3.7 12.9-30.4 9.8-32.3zm-25.1 33.4c-6 0-10.9-5-10.9-11s5-10.9 11-10.9 10.9 5 10.9 11c0 6.1-4.9 11-11 10.9z"/><path d="M779.1 1154c-2.8 0-5.1 2.3-5.1 5.1 1.4-.8 7.9-.4 10.2.1 0-2.9-2.2-5.2-5.1-5.2z"/></g><g><path d="M457.6 1164.3c-1.7-4.5-46.4-20.2-66.6-25.9-3.1 1.8 4.2 28.6 9.5 32.4 1.6 1.2 20.8 5.5 49.3 10.5 2.3.4 4.1.2 5.2-2.1 1.3-3.7 4-11 2.6-14.9zm-42 7.8c-6 0-10.9-5-10.9-11s5-10.9 11-10.9 10.9 5 10.9 11c0 6.1-4.9 11-11 10.9z"/><path d="M416 1153.7c-2.8 0-5.1 2.3-5.1 5.1 2.3-.4 8.8-.8 10.2.1 0-2.9-2.3-5.2-5.1-5.2z"/></g><g><path d="M419.9 1025.5c-3.3-7.7-11-13.4-17.7-17.3-9.5-5.5-21.7-15.2-20.7 4.2.7 16.1 1.7 43.2 7.1 58.5 3.1 8.9 46.5 24.4 48.6 13.9 2.4-11.9-15-53.6-17.3-59.3zm7.2 60.2c-11.3-2.3-35.7-8.5-38.1-22.2-2.8-16.1-3.9-39.9-4.5-55.5v-.5c.1-1.3 1-1.9 2.4-1.9 5-.1 16.7 7.4 23.3 12.6 1.5.9 2.9 2.2 4 3.6l.2.2c1.3 1.8 2.3 3.8 2.8 6 5.8 14.1 15.8 45.8 17 51.1 1.3 6.3-4.2 7.3-7.1 6.6z"/><path d="M397.7 1011.5c2.6 2.3 3.9 3.7 5.1 4.3 2.7.1 5.2 1 7.3 2.3-6.4-5.1-18.2-12.7-23.2-12.6-1.4 0-2.2.6-2.4 1.9v.9c1.4-1.6 9.7.2 13.2 3.2z"/><path d="M403.9 1016c-.4 0-.7-.1-1-.2h-.7c-8.6-.1-15.6 6.9-15.6 15.4-.1 8.6 6.9 15.6 15.4 15.6 8.6.1 15.6-6.9 15.6-15.4 0-1.2-.1-2.3-.4-3.5-1.1-2.8-2.1-4.8-2.8-5.9-.4.2-4.4-5.8-10.5-6zm-5.8 4.2c2.1 0 3.8 1.7 3.8 3.8 0-2.1 1.7-3.8 3.8-3.8s3.8 1.7 3.8 3.8c0 2.1-1.7 3.8-3.8 3.8-2.1 0-3.8-1.7-3.8-3.8 0 2.1-1.7 3.8-3.8 3.8-2.1 0-3.8-1.7-3.8-3.8 0-2.1 1.7-3.8 3.8-3.8zm7.5 20.9c-2.1 0-3.8-1.7-3.8-3.8 0 2.1-1.7 3.8-3.8 3.8-2.1 0-3.8-1.7-3.8-3.8 0-2.1 1.7-3.8 3.8-3.8 2.1 0 3.8 1.7 3.8 3.8 0-2.1 1.7-3.8 3.8-3.8 2.1 0 3.8 1.7 3.8 3.8 0 2.1-1.7 3.8-3.8 3.8zm3.9-6.6c-2.1 0-3.8-1.7-3.8-3.8 0 2.1-1.7 3.8-3.8 3.8-2.1 0-3.8-1.7-3.8-3.8 0 2.1-1.7 3.8-3.8 3.8-2.1 0-3.8-1.7-3.8-3.8 0-2.1 1.7-3.8 3.8-3.8s3.8 1.7 3.8 3.8c0-2.1 1.7-3.8 3.8-3.8 2.1 0 3.8 1.7 3.8 3.8 0-2.1 1.7-3.8 3.8-3.8 2.1 0 3.8 1.7 3.8 3.8 0 2.1-1.7 3.8-3.8 3.8z"/><path d="M414.2 1021.9s.1.1.1.2v-.1c-.1-.1-.1-.2-.2-.2-.8-.9-2.2-2.2-4-3.6 2.1 1.5 3.6 2.9 4.1 3.7z"/><path class="st2" d="M402.2 1062.3c.7 16.7 25.6 15.5 25-.5-1.1-13.7-24.1-14.1-25 .5z"/></g><g><path d="M792.1 1010.1c-6.7 3.8-14.5 9.4-17.9 17-2.4 5.6-18.9 47-18 59.2.7 9.4 44.9-4.8 48.9-12.5 7.5-14.4 6.9-43.2 7.7-59.3 1.2-19.4-11.1-9.8-20.7-4.4zm13.8 54.9c-2.5 13.7-29.7 19.4-41.1 21.4-3 .5-6.9.5-5.5-5.9 1.2-5.3 11.6-36.9 17.6-50.9 1-4.1 3.6-7.6 7.1-9.8 8.4-6.5 26.1-17.2 25.8-9.8-.8 15.7-.9 38.9-3.9 55z"/><path d="M791.9 1048.6c8.6.1 15.6-6.9 15.6-15.4.1-8.6-6.9-15.6-15.4-15.6-3 0-5.7.8-8.1 2.2-2.1 1.6-3.6 3-4.1 3.7-.7 1-1.8 3.2-3 6-.3 1.1-.4 2.3-.4 3.5-.1 8.6 6.8 15.6 15.4 15.6zm4-5.6c-2.1 0-3.8-1.7-3.8-3.8 0 2.1-1.7 3.8-3.8 3.8-2.1 0-3.8-1.7-3.8-3.8 0-2.1 1.7-3.8 3.8-3.8 2.1 0 3.8 1.7 3.8 3.8 0-2.1 1.7-3.8 3.8-3.8 2.1 0 3.8 1.7 3.8 3.8.1 2.1-1.7 3.8-3.8 3.8zm-7.5-21c2.1 0 3.8 1.7 3.8 3.8 0-2.1 1.7-3.8 3.8-3.8 2.1 0 3.8 1.7 3.8 3.8 0 2.1-1.7 3.8-3.8 3.8-2.1 0-3.8-1.7-3.8-3.8 0 2.1-1.7 3.8-3.8 3.8-2.1 0-3.8-1.7-3.8-3.8 0-2.1 1.7-3.8 3.8-3.8zm-3.9 6.6c2.1 0 3.8 1.7 3.8 3.8 0-2.1 1.7-3.8 3.8-3.8 2.1 0 3.8 1.7 3.8 3.8 0-2.1 1.7-3.8 3.8-3.8 2.1 0 3.8 1.7 3.8 3.8 0 2.1-1.7 3.8-3.8 3.8-2.1 0-3.8-1.7-3.8-3.8 0 2.1-1.7 3.8-3.8 3.8-2.1 0-3.8-1.7-3.8-3.8 0 2.1-1.7 3.8-3.8 3.8-2.1 0-3.8-1.7-3.8-3.8 0-2.1 1.7-3.8 3.8-3.8z"/><path class="st2" d="M766.5 1063.3c-.7 16 24.1 17.5 25 .8-.8-14.6-23.8-14.5-25-.8z"/></g></g><g id="logo" transform="translate(-93.615 -159.24)"><g id="g829" transform="matrix(6.09037 0 0 6.0904 .603 69.487)"><path id="path825" d="M116.4 188v.2c-.3-.2-.7-.3-1.2-.3-.3 0-1.1 0-1.7.5.4.3.7.8.7 1.5s-.3 1.1-.7 1.4c.1.1.3.2.4.3.5.3 1.1.3 1.3.3.4 0 .6 0 1.3-.3v.2h1.6v-3.9l-1.7.1zm-1.1 3c-.6 0-1.1-.5-1.1-1.1 0-.6.5-1.1 1.1-1.1.6 0 1.1.5 1.1 1.1 0 .7-.5 1.2-1.1 1.1z"/><path id="path827" d="M111.8 187.9c-1 0-1.3.2-1.4.3v-1.9h-1.5v5.5h1.5v-.3c.5.3 1.1.3 1.4.3.6 0 2.4-.2 2.4-1.9 0-1.3-1.2-1.9-2.4-2zm0 3.1c-.6 0-1.1-.5-1.1-1.1 0-.6.5-1.1 1.1-1.1.6 0 1.1.5 1.1 1.1 0 .6-.5 1.1-1.1 1.1z"/></g><g id="text16" transform="translate(0 46.567)"><path id="path32" d="M679.8 1158.3h3.1c.1 0 .2 0 .3.1.1 0 .3.1.4.2.1.1.2.1.4.2.1.1.2.2.3.4.1.1.1.3.1.5s0 .3-.1.4c-.1.1-.1.2-.2.4-.1.1-.2.2-.4.2-.1.1-.3.1-.5.1.2 0 .3.1.5.2.1.1.3.2.4.3.1.1.2.2.3.4.1.2.1.3.1.5 0 .3-.1.5-.1.7-.1.2-.2.3-.4.4-.2.1-.4.2-.7.2-.3.1-.6.1-1 .1h-2.4l-.1-5.3zm1.6 4.4h1.1c.1 0 .2-.1.2-.1.1 0 .1-.1.1-.1l.1-.1v-.1s0-.1-.1-.1l-.1-.1s-.1-.1-.2-.1h-1.1v.7zm0-2.3h1.1c.1 0 .2-.1.2-.1.1 0 .1-.1.1-.2v-.4c0-.1-.1-.1-.1-.2-.1-.1-.1-.1-.2-.1h-1.1v1z"/></g><g id="text20" transform="translate(33.803 46.418)"><path id="path35" d="M659.1 1158.5h1.8l2.1 5.5h-1.7l-.4-1h-2.1l-.4 1h-1.6l2.3-5.5zm1.4 3.4-.6-2.2-.7 2.2h1.3z"/></g><g id="text24" transform="translate(62.4 47.211)"><path id="path38" d="M640.5 1157.8h2.4c.3 0 .5 0 .7.1.2.1.5.1.7.2.2.1.4.2.5.4.1.2.2.4.2.7 0 .2 0 .4-.1.6-.1.2-.2.3-.3.4-.1.1-.3.2-.4.2s-.3.1-.5.1c.3 0 .5.1.6.2.2.1.3.2.3.4s.1.3.2.5c0 .2.1.4.1.6V1162.8c0 .1 0 .1.1.2h-1.7s0-.1-.1-.1V1162.3c0-.1 0-.3-.1-.4 0-.1-.1-.3-.1-.4 0-.1-.1-.2-.2-.3s-.2-.1-.4-.1h-.7v2.1h-1.5l.3-5.4zm1.6 1.1v1.2H643c.1 0 .2-.1.2-.1.1 0 .1-.1.2-.2 0-.1.1-.2.1-.3 0-.1 0-.2-.1-.3 0-.1-.1-.1-.2-.2-.1 0-.2-.1-.3-.1h-.8z"/></g><g id="text28" transform="translate(94.726 47.211)"><path id="path41" d="M619.9 1157.9h4.9v1.1h-1.7v4.3h-1.5v-4.3h-1.7v-1.1z"/></g></g><path d="M717.8 825.9v2.8l-.7.7-.7-.7v-4.4l1.4 1.6zm0 4.5v3.6l-.7.7-.7-.7v-3.6l.7-.7.7.7zm-1.1-6.2 4.1.1.7.7-.7.7H718l-1.3-1.5zm1.2 4.6h2.8l.7.7-.7.7h-2.8l-.7-.7.7-.7zm3.6 6-2.8-3.3v-1h1l2.8 3.3v1h-1zm.8-8.9v2.8l-.7.7-.7-.7v-2.8l.7-.7.7.7zM724.9 830.5v3.6l-.7.7-.7-.7V828.8l.7-.7.7.7v1.7zm-1.3-4.4.7-.7.7.7v.8l-.7.7-.7-.7v-.8zM727 833.8l-.7-.7v-4.4l.7-.7.7.7v4.4l-.7.7zm.1.2.7-.7h2.8l.7.7-.7.7h-2.8l-.7-.7zm.1-6.2.7-.7h2.8l.7.7-.7.7h-2.8l-.7-.7zM732.6 834l.1-5.2.7-.7.7.7-.1 5.2-.7.7-.7-.7zm.1-7.1v-2l.7-.7.7.7v2l-.7.7-.7-.7zm4.3 1.7h-2.8l-.7-.7.7-.7h2.8l.7.7-.7.7zm.1 5.5.1-4.4.7-.7.7.7-.1 4.4-.7.7-.7-.7zm0 0 .1-5.2.7-.7.7.7-.1 5.2-.7.7-.7-.7zM740.5 828.3l.7.7v5.1l-.7.7-.7-.7V829l.7-.7zm1 .3h-.2l-.7-.7.7-.7h1.3l.7.7-.7.7h-1.1zm0 0h-.2l-.7-.7.7-.7h1.3l.7.7-.7.7h-1.1zm2-.3.7.7-.1 4.5-.7.7-.7-.7.1-4.5.7-.7zm1.2.3h-.2l-.7-.7.7-.7h1.3l.7.7-.7.7h-1.1zm2.1-.3.7.7v5.1l-.7.7-.7-.7V829l.7-.7zM748.8 833.2v-4.7l.7-.7.7.7v4.7l-.7.7-.7-.7zm4.3 1.7h-2.8l-.7-.7.7-.7h2.8l.7.7-.7.7zm.1-6.6h-2.8l-.7-.7.7-.7h2.8l.7.7-.7.7zm.1 5v-4.7l.7-.7.7.7v4.7l-.7.7-.7-.7zM756.7 828.3l.7.7v5.3l-.7.7-.7-.7V829l.7-.7zm4.4-.2-.7.7h-2.8l-.7-.7.7-.7h2.8l.7.7zm.1.1.7.7v5.4l-.7.7-.7-.7v-5.4l.7-.7zM763.2 833.3v-4.4l.7-.7.7.7v4.4l-.7.7-.7-.7zm4.3 1.7h-2.8l-.7-.7.7-.7h2.8l.7.7-.7.7zm.1-6.2h-2.8l-.8-.8.7-.7h2.8l.7.7-.6.8zm.1 4.6V829l.7-.7.7.7v4.4l-.7.7-.7-.7zm0-6.3v-2l.7-.7.7.7v2l-.7.7-.7-.7z"/><g id="car_number_1_"><path transform="matrix(1 .00605 -.00605 1 6.19 -3.856)" style="fill:#080909" d="M629.6 1018.4h22.5v7.2h-22.5z"/><path transform="matrix(.00605 -1 1 .00605 -385.386 1658.602)" style="fill:none" d="M637.7 1012.1h7.8v22.2h-7.8z"/><text id="car_number" transform="matrix(1 .00605 -.00605 1 630.55 1025.005)" style="letter-spacing:1;font-size:8.1884px;font-family:'DINAlternate-Bold';fill:#919191">3011</text></g><g><path d="M777.8 662.2c-7.3-6-18.3-5.8-25.3.6 1.4.4 2.8.7 4.2 1.1-.5-1.7 1.5-3.7 2.4-5 1.2-1.7 2-3.3 2.1-5.4.1-3.6-2.4-8-6.5-6.6-.8.3-1.6.9-1.7 1.7-.7 4.8-1.7 9.6-2.7 14.4 1.2-.5 2.4-1 3.7-1.5-3-2.1-5.5-4.8-7.2-8.1-.7-1.3-2.2-1.5-3.4-.9-2.7 1.3-5.7 2.8-8 4.7-2.7 2.2-2.2 5.7.2 7.8 4.3 3.8 10.6 5.5 16.2 5.3-.8-1.1-1.6-2.1-2.4-3.2-.5 2.6-1 5.2-1.3 7.8-.2 1.1.1 2.2 1.1 2.8 1 .6 2.2.4 3-.4 1.8-1.7 3.4-3.5 4.4-5.8.5-1.2.9-2.4 1.2-3.7.2-1-.2-1.9-.5-2.8l-.6 2.4.6-.6c1.1-1.1.9-3.2-.5-3.9-.1-.1-.2-.1-.3-.2-.4 1.6-.8 3.1-1.3 4.7h.7c-.4-.1-.8-.2-1.3-.3 4.2 2.5 9 5.2 14 4.6 4.4-.5 8.6-2.9 9.9-7.4.9-3.1-3.9-4.4-4.8-1.3-.9 3-4.6 4-7.4 3.7-2-.3-3.9-1.1-5.7-2-1.8-.9-3.4-2.3-5.4-2.3-2.4 0-3.5 3.5-1.3 4.7.1.1.2.1.3.2-.2-1.3-.3-2.6-.5-3.9l-.6.6c-.6.6-.9 1.6-.6 2.4.2.5.4 1 .5 1.5v-1.3c-.2.9-.5 1.8-.8 2.6-.2.5-.3.8-.7 1.5-.4.6-.6.9-.9 1.3-.6.7-1.3 1.3-1.9 1.9l4.2 2.4c.4-2.6.8-5.2 1.3-7.8.3-1.5-.7-3.2-2.4-3.2-4.1.1-8.1-.9-11.6-3.1-.4-.2-.8-.5-1.1-.8l-.6-.7c.3 0-.7.6.1.1.4-.2.8-.5 1.2-.8 2-1.2 4-2.4 6.1-3.4-1.1-.3-2.3-.6-3.4-.9 2.1 4 5.2 7.3 9 9.8 1.3.9 3.3 0 3.7-1.5 1-4.8 2-9.5 2.7-14.4l-1.7 1.7c.3-.1.3-.1 0-.1.3 0 .3 0 0 0-.3-.1-.3-.1-.1-.1.2.1.1.1-.1-.1.2.2.2.2 0 0 .1.1.2.3.2.4-.1-.4.1.3.1.3.2.8.1 1.9-.3 2.6-1.9 3.3-5.1 6.1-3.9 10.4.5 1.9 2.8 2.3 4.2 1.1 4.9-4.4 13.1-4.8 18.2-.6 1 .9 2.5 1 3.5 0 .7-.4.8-2.2-.2-3zM171.5 948.6c-3.2-1.6-6.6-1.3-9.7.2-3.2 1.5-5.5 4.2-7.6 6.9 1.5.2 3 .4 4.6.6-.5-3.3-.9-6.6-1.4-9.9-.2-1.2-1.7-2-2.7-1.8-1.3.2-2 1.2-2.2 2.5-.4 4.1-.9 8.2-1.3 12.3 1.1-.8 2.1-1.6 3.2-2.4l1.8 2.4c.6-6.8-3.7-13.1-9.9-15.6-1.5-.6-3.2.9-3.2 2.4.1 4.1.8 8.1 2 12l3.1-3.1h-.1c.4.2.7.4 1.1.6-2.3-2.9-6.8-3.7-10-1.8-3 1.8-4.5 5.7-3.4 9 2.2 7 11.5 6.6 16.2 2.8-1.3-.2-2.6-.3-3.9-.5.7 1.4 1.6 2.8 3 3.6 1.5.8 3.3.7 4.8-.1 3.3-1.7 3.8-5.5 3.4-8.9l-2.5 2.5c4.1.5 8.5.2 11.8-2.3 3.1-2.3 5-6.1 4-10-.8-3.1-5.6-1.8-4.8 1.3.5 2-1 4-2.6 5-2.5 1.5-5.6 1.3-8.4 1-1.2-.1-2.7 1.3-2.5 2.5.2 1.4.6 3.3-.6 4.4-.1.1-.5.2-.3.2-.4-.1-.9-1.4-1.1-1.7-.8-1.6-2.8-1.5-3.9-.5-1.3 1.1-3.2 1.4-4.8 1.3-1.3-.1-2.6-.6-3.1-1.9-.5-1.2.1-3 1.5-3.5.7-.3 1.6-.2 2.3.1 1 .4 1.4 1.5 2.5 1.8 1.8.5 3.6-1.3 3.1-3.1-1.1-3.5-1.7-7-1.8-10.7-1.1.8-2.1 1.6-3.2 2.4 4.2 1.7 6.6 6.4 6.2 10.8-.1 1.1.9 2.1 1.8 2.4 1.7.5 3-.9 3.2-2.4.4-4.1.9-8.2 1.3-12.3-1.6.2-3.3.4-4.9.7.5 3.3.9 6.6 1.4 9.9.1.9 1.2 1.7 2.1 1.8 1.1.1 1.9-.4 2.5-1.2 2.2-2.8 6.4-7.4 10.5-5.4 2.8 1.5 5.3-2.8 2.5-4.3zM387 471.3c-.7-.7-1.5-1.5-2.2-2.3l-1.9-2.2c-1.3-1.4-2.6-2.9-4-4.3-2.7-2.8-5.5-5.5-8.4-8-5.8-5.1-12.1-9.7-18.8-13.5-6.7-3.8-13.9-6.7-21.4-8.3-3.7-.8-7.5-1.3-11.3-1.5-3.8-.2-7.6 0-11.4.5-7.6 1-14.9 3.3-21.8 6.5s-13.4 7.4-19.4 12.2c-12.1 9.5-22.4 21.1-31.6 33.5l-.8 1-1.3-.2c-18.9-3.2-38.8-.9-56.1 7.1-8.6 4-16.7 9.4-23.3 16.1-6.7 6.7-12 14.7-15.3 23.5-1.7 4.4-2.9 9-3.6 13.6-.4 2.4-.8 4.8-1 7.1-.2 2.4-.4 4.7-.5 7.1-.3 9.5.8 19 3.4 28.2 2.6 9.1 6.6 17.9 11.7 25.9 5.1 8.1 11.2 15.5 18.1 22.1 13.7 13.4 30.2 23.8 47.8 31.5 17.6 7.7 36.5 12.6 55.6 14.1s38.6-.4 56.4-7c8.9-3.3 17.3-7.8 24.8-13.5s14.1-12.5 19.5-20.3l-.4.7c4.4-10.4 5.2-22.4 2.3-33.3-1.4-5.5-3.8-10.7-7-15.3a42.4 42.4 0 0 0-12-11.5l5.2-3.3c1.4 10.6 2.4 21.4 2.2 32.3-.1 5.4-.5 10.9-1.4 16.3-.9 5.4-2.3 10.8-4.4 16-2.1 5.2-5 10.1-8.8 14.4-3.8 4.3-8.4 7.8-13.6 10.2-5.1 2.5-10.6 3.9-16.1 4.7-5.5.7-11 .8-16.5.5l-.1-5.5c4-.4 8-1.6 11.6-3.5 3.6-1.9 6.9-4.4 9.8-7.4 5.7-6 9.9-13.6 12.1-21.6 1-4 1.6-8.2 1.1-12.1-.2-1.9-.8-3.8-1.7-5.3-.9-1.5-2.2-2.4-3.7-2.7-1.6-.3-3.5-.1-5.3.6-1.9.6-3.7 1.5-5.5 2.6-3.6 2.2-6.9 4.9-10.1 7.8l.3-.4c-2.9 4.2-6 8.3-9.4 12.2-3.4 3.9-7.1 7.6-11.3 10.8-4.2 3.2-8.9 5.9-14.2 7.1-2.7.6-5.5.7-8.3.2-2.8-.5-5.4-1.7-7.6-3.3-4.5-3.3-7.5-8-9.5-12.8-2-4.9-3.1-10-3.7-15.2-1-10.3.3-20.8 3.5-30.6s8.6-19 15.9-26.4c1.8-1.8 3.7-3.6 5.8-5.2 2.1-1.6 4.1-3.1 6.2-4.5 4.2-2.9 8.7-5.5 13.3-7.7 9.2-4.5 19.3-7.5 29.6-8.1 10.3-.7 20.7.9 30.4 4.3s18.7 8.7 26.8 14.9c8.1 6.3 15.4 13.5 21.9 21.4 6.5 7.9 12.2 16.4 17.2 25.4 4.9 8.9 9 18.4 11.9 28.3 1.5 4.9 2.7 9.8 3.8 14.8 1.1 5 2.1 10 3 15 1.8 10 3.2 20.1 4.5 30.2a768.005 768.005 0 0 1 4.8 60.8H438c.7-24.2.2-48.5-2.6-72.5-2.8-24-7.6-47.8-15.9-70.2-4.2-11.2-9.2-22.1-15.4-32.3-3.1-5.1-6.5-10-10.1-14.6-3.7-4.6-7.6-9-11.9-13.1-8.5-8.1-18.4-14.8-29.2-19.2-5.4-2.3-11-3.9-16.7-5-5.7-1-11.5-1.5-17.3-1.3-5.8.2-11.6 1.1-17.2 2.6s-11 3.6-16.2 6.3c-10.3 5.3-19.4 12.9-26.6 22.1-7.2 9.1-12.5 19.7-15.5 31-3.1 11.2-4.1 23.1-3.2 34.8.4 5.9 1.3 11.7 2.6 17.4.3 1.4.7 3 1 4.6.1.9.3 1.7.3 2.8v1c0 .2 0 .5-.1.8-.1.4-.1.8-.6 1.6-.3.4-.6 1-1.4 1.5-.8.5-2 .8-2.8.7-.8-.1-1.3-.3-1.7-.5-.4-.2-.6-.4-.8-.5-.7-.6-.9-.9-1.2-1.2-.4-.6-.7-1-.9-1.4-.2-.4-.5-.8-.6-1.2-.4-.8-.7-1.5-1.1-2.3-.6-1.5-1.2-3-1.7-4.5-2.1-6-3.7-12-5.1-18.1-1.3-6.1-2.3-12.3-2.9-18.5-.6-6.2-.8-12.5-.5-18.8.3-6.3 1.2-12.7 2.9-18.9 1.7-6.2 4.3-12.3 8.1-17.8s8.7-10.2 14.4-13.7l.8-.5.9-.1c4.9-.7 9.7-1.5 14.3-2.6 2.3-.6 4.6-1.2 6.7-1.9 2.1-.7 4.1-1.7 5.2-2.7.5-.5.7-.8.7-.8s.1-.3-.2-1c-.3-.6-.8-1.4-1.5-2.2-.7-.8-1.4-1.6-2.3-2.4-3.3-3.2-7.3-6.2-11.2-9.4-2-1.6-3.9-3.3-5.9-5.1-1.9-1.8-3.8-3.8-5.5-6.2-.8-1.2-1.6-2.5-2.3-4-.6-1.5-1.1-3.2-1.2-5-.1-1.8.1-3.7.8-5.4.6-1.7 1.5-3.1 2.5-4.4 2-2.5 4.4-4.2 6.7-5.7s4.7-2.7 7.1-3.8c4.8-2.2 9.7-3.8 14.6-5.3 2.4-.7 4.9-1.4 7.3-2.1l1.9-.5 1.9-.5c1.3-.3 2.6-.5 3.9-.7 5.3-.8 10.8-1 16.3.1 5.4 1 10.7 3.1 15.3 6.1 4.6 2.9 8.6 6.5 12.2 10.3 7.1 7.6 12.7 16 18.8 23.7 3 3.8 6.2 7.4 9.7 10.5 3.5 3.1 7.3 5.6 11.4 7.2 2 .7 4.4 1.4 6.8 2 2.4.6 4.7 1.1 7.1 1.6 4.8.9 9.6 1.6 14.4 2.1 9.7.9 19.5.8 29.3.2 4.9-.3 9.8-.8 14.8-1.3s10-1.1 15.2-1.2c2.6 0 5.3 0 8.3.6 1.5.3 3.1.9 4.6 1.9 1.5 1 2.9 2.6 3.6 4.3.8 1.7 1 3.4 1 4.9 0 1.5-.1 3-.3 4.4-.4 2.8-1.2 5.3-2 7.8-1.6 4.9-3.6 9.6-5.7 14.2s-4.3 9.1-6.6 13.6-4.6 8.9-6.9 13.3l-3.5 6.6c-1 1.8-1.4 3.6-1.1 5.3.2 1.6 1.2 3.2 2.7 4.6 1.5 1.3 3.4 2.4 5.5 3.2 4.2 1.6 8.9 2.1 13.4 1.8 4.6-.3 9.1-1.5 13.2-3.6 4-2.1 7.5-5.2 9.9-9l.3-.5.5-.3c10.9-7 21.2-14.9 29.8-24.4 4.3-4.8 8.2-9.9 11.3-15.4 3.1-5.5 5.6-11.4 7-17.6 1.5-6.1 1.9-12.5 1.2-18.8-.6-6.3-2.3-12.5-4.8-18.4-5-11.8-13-22.2-22.5-30.9-9.5-8.8-20.4-16-32.2-21.5-11.7-5.5-24.3-9.4-37.2-10.9-12.8-1.5-26.2-.6-38.2 4.3-6 2.4-11.6 5.8-16.5 10.2-2.4 2.2-4.6 4.5-6.7 7.1-1 1.3-1.9 2.6-2.9 4l-1.3 2.1c-.4.2-1 1.1-1.5 1.8zm-.1-.8c.3-.7.5-1.3.9-2l1.3-2.1c.9-1.4 1.8-2.8 2.8-4.1 2-2.6 4.2-5.1 6.6-7.4 4.8-4.5 10.5-8.1 16.6-10.8 6.1-2.6 12.6-4.2 19.2-5 6.6-.8 13.3-.7 19.9-.1 13.2 1.3 26.1 5 38.2 10.5 12.1 5.5 23.4 12.6 33.4 21.5 9.9 8.9 18.5 19.6 23.9 32 2.7 6.2 4.6 12.8 5.3 19.5.8 6.8.4 13.7-1.1 20.3-1.5 6.7-4 13-7.3 18.9-3.3 5.9-7.3 11.4-11.8 16.4-8.9 10.1-19.5 18.4-30.6 25.7l.8-.8c-2.9 4.6-7.1 8.4-11.9 11-4.8 2.6-10.1 4.1-15.4 4.5-5.4.4-10.8-.1-16-2.1-2.6-1-5.1-2.3-7.4-4.3-2.2-2-4.2-4.8-4.7-8.1-.3-1.6-.2-3.3.1-4.9.3-1.6.9-3 1.6-4.3l3.5-6.6c2.3-4.4 4.6-8.8 6.8-13.3 2.2-4.4 4.3-8.9 6.3-13.4s3.9-9 5.3-13.6c.7-2.3 1.3-4.5 1.6-6.7.3-2.1.3-4.3-.3-5.5-.3-.6-.6-1-1.2-1.3-.6-.4-1.4-.7-2.3-.9-1.9-.4-4.2-.5-6.6-.4-4.7.2-9.7.8-14.6 1.3-5 .5-10 1.1-15 1.5-10.1.8-20.3.9-30.5 0-5.1-.4-10.2-1.1-15.2-2.1-2.5-.5-5-1-7.5-1.6-2.5-.6-4.9-1.2-7.6-2.2-5.3-1.9-9.9-5-13.9-8.5s-7.4-7.4-10.7-11.4c-6.4-7.9-12-16.1-18.6-23.1-3.3-3.5-6.8-6.6-10.6-9-3.8-2.4-8-4.1-12.4-4.9-4.4-.8-9-.7-13.5 0-1.1.2-2.3.4-3.4.7l-1.7.4-1.8.5c-2.4.6-4.7 1.3-7.1 2-4.7 1.4-9.2 3-13.5 5-2.1 1-4.2 2.1-6.1 3.2-1.9 1.2-3.5 2.5-4.7 4-1.2 1.4-1.6 2.7-1.5 4 .1 1.4.8 3.1 2 4.7 2.4 3.4 6.1 6.6 9.9 9.7 3.8 3.1 7.8 6.1 11.7 9.8 1 .9 2 1.9 2.9 3 .9 1.1 1.9 2.4 2.7 4 .4.8.7 1.8.9 2.8.2 1.1.2 2.3-.1 3.5-.3 1.2-.8 2.3-1.3 3.2-.6.9-1.3 1.6-1.9 2.2-1.3 1.2-2.7 2-4 2.7-1.3.7-2.6 1.2-3.9 1.7-2.6.9-5.1 1.6-7.7 2.2-5.1 1.2-10.1 2-15.1 2.7l1.6-.6c-4.7 2.9-8.7 6.7-11.9 11.3-3.1 4.5-5.4 9.8-6.9 15.2-3 11-3.3 22.9-2.1 34.7.6 5.9 1.5 11.7 2.8 17.5 1.3 5.8 2.8 11.5 4.8 17 .5 1.4 1 2.7 1.6 4 .3.6.6 1.3.8 1.8.1.3.3.6.4.8.1.2.3.4.3.5l-.4-.3c-.1-.1-.3-.2-.5-.3-.3-.1-.7-.3-1.4-.4-.7-.1-1.8.1-2.5.6s-1 .9-1.2 1.3c-.4.7-.4.9-.4 1v.2-.1c0-.4-.1-1.1-.2-1.7-.2-1.3-.6-2.7-.9-4.3-1.3-6.1-2.2-12.4-2.7-18.6-.9-12.5.2-25.3 3.6-37.5s9.2-23.8 17.1-33.7c7.9-9.9 17.9-18.2 29.2-24 5.7-2.9 11.6-5.2 17.8-6.8 6.2-1.6 12.5-2.5 18.8-2.7 6.4-.2 12.7.3 19 1.5 6.2 1.2 12.3 3 18.2 5.5 11.7 4.9 22.2 12.2 31.3 20.8 4.5 4.3 8.7 9 12.5 13.9 3.8 4.9 7.3 10.1 10.5 15.4 6.4 10.7 11.5 22 15.7 33.6 4.2 11.6 7.4 23.5 9.9 35.5s4.3 24.2 5.5 36.4c2.5 24.4 2.7 48.9 1.6 73.3h-4.8c-.4-20.2-1.7-40.4-3.8-60.5-1-10.1-2.3-20.1-4-30.1-1.6-10-3.6-19.9-6.4-29.5-2.7-9.7-6.7-18.9-11.5-27.8-4.8-8.8-10.4-17.2-16.8-25-6.4-7.8-13.5-14.9-21.4-21.1-7.9-6.1-16.7-11.3-26.1-14.6-9.4-3.4-19.5-4.9-29.4-4.2-10 .7-19.7 3.6-28.7 8-4.5 2.2-8.8 4.8-12.9 7.6-2.1 1.4-4.1 2.9-6.1 4.4-1.9 1.5-3.8 3.2-5.5 5-6.9 7.1-12 16-15 25.4-3 9.5-4.2 19.6-3.2 29.4.5 4.9 1.6 9.8 3.6 14.3 1.9 4.5 4.7 8.6 8.5 11.3 1.9 1.3 4 2.2 6.3 2.6 2.2.4 4.6.3 6.8-.2 4.6-1 8.8-3.6 12.7-6.6 3.9-3 7.3-6.6 10.6-10.4 3.2-3.8 6.2-7.8 9-12l.1-.2.2-.2c3.3-3.1 6.7-6 10.6-8.4 2-1.2 4-2.3 6.3-3.1 2.3-.8 4.9-1.3 7.6-.8 1.4.3 2.7.8 3.9 1.6 1.2.8 2.1 1.9 2.9 3 1.5 2.3 2.1 4.7 2.4 7.1.6 4.8 0 9.5-1.1 13.9-1.1 4.5-2.8 8.8-5 12.8s-4.8 7.8-8 11.2c-3.2 3.4-6.9 6.3-11 8.5s-8.8 3.7-13.5 4.2l-.1-5.5c5.1.3 10.3.1 15.3-.6s9.9-2.1 14.3-4.3c4.4-2.2 8.4-5.2 11.6-8.9 3.2-3.7 5.7-8.1 7.5-12.7 3.7-9.4 4.9-19.8 5.1-30.1.1-10.4-.8-20.8-2.3-31.2l-1-7.2 6.2 3.9c5.5 3.4 10.3 8 14.1 13.3 3.8 5.3 6.5 11.3 8.1 17.5 3.3 12.5 2.4 25.9-2.5 37.8l-.1.3-.2.3c-5.8 8.4-12.9 15.8-21 21.9-8.1 6.1-17.2 11-26.7 14.5s-19.4 5.7-29.4 6.8c-10 1.1-20.1 1.2-30 .4-19.9-1.7-39.5-6.8-57.8-14.8-18.3-8-35.3-19.1-49.6-33.1-7.1-7-13.5-14.9-18.9-23.4-5.3-8.5-9.5-17.8-12.2-27.6-2.7-9.7-3.8-19.9-3.4-30 .1-2.5.3-5 .6-7.5s.7-4.9 1.1-7.4c.9-5 2.2-10 4.1-14.7 3.7-9.5 9.6-18.1 16.8-25.2 7.2-7.1 15.8-12.8 25-16.9 18.4-8.2 39.2-10.3 58.9-6.7l-2 .8c9.5-12.4 20.2-24.2 32.8-33.8 6.3-4.8 13-9 20.3-12.2 7.2-3.2 14.9-5.5 22.8-6.4 3.9-.4 7.9-.5 11.9-.3 4 .3 7.9.9 11.7 1.8 7.7 1.8 15 5 21.8 9 6.8 4 13 8.8 18.8 14.1 2.9 2.7 5.6 5.4 8.3 8.3 1.3 1.4 2.6 2.9 3.9 4.4l1.9 2.2c.4.7.9 1.4 1.4 2.2z"/></g><g><path d="M1066.1 574.1c-90.1 115.1 11.3 154.1 12.4 169 2.9 38-145.7 65-138.9 107.3 3.5 22 29.6 43.1 32.3 100.4 2.2 46-49.2 51.7-49.2 51.7s53.8 6 53.6-48.1-22.3-81.1-26-106.5c-2.9-19.9 147.1-67.3 139.9-104.5-6.2-31.8-92.3-46.2-24.1-169.3z"/><path d="M999.2 902.6c-39.5 10.4-65 39.5-58.5 71.1 6.4 31.8 8.8 90.7-33.8 103.6 32.3-11.7 37.8-65.1 23-98.4-15.7-35.6 26.6-75.1 69.3-76.3z"/><path d="M935.2 746.1c182 92.1 30.7 133 2.2 155.4-58.6 46.3-10.5 93.7-11.2 123.3-.7 31.4-18.2 83.8-33.2 82.3 10.4-.9 32.4-45.6 30.3-81.6-2.3-40.6-48.5-115 2.2-131.4 70.9-22.7 147.1-68.2 9.7-148z"/></g><g><path d="M673.8 443.5h-23.4v-5.3c0-5.4-1.3-10-3.8-13.9-2.5-3.9-6.8-5.9-12.7-5.9-3.2 0-5.8.6-7.8 1.8-2 1.2-3.6 2.8-4.8 4.6-1.2 2-2.1 4.2-2.5 6.8-.5 2.5-.7 5.2-.7 7.9 0 3.2.1 5.9.3 8 .2 2.1.8 4.1 1.7 5.7.9 1.7 2.3 3.1 4 4.4 1.8 1.2 4.2 2.5 7.2 3.7l17.9 7.1c5.2 2 9.4 4.3 12.6 7 3.2 2.7 5.7 5.8 7.6 9.3 1.7 3.7 2.8 7.8 3.4 12.5.6 4.7.9 10 .9 16 0 6.9-.7 13.3-2.1 19.2-1.4 5.9-3.6 10.9-6.7 15-3.2 4.3-7.4 7.7-12.6 10.1-5.2 2.4-11.6 3.7-19.1 3.7-5.7 0-11-1-15.8-3-4.9-2-9.1-4.7-12.6-8.3-3.5-3.5-6.3-7.6-8.4-12.3-2.1-4.7-3.1-9.8-3.1-15.3v-8.7h23.4v7.4c0 4.3 1.3 8.2 3.8 11.6s6.8 5.2 12.7 5.2c4 0 7.1-.6 9.3-1.7 2.2-1.1 3.9-2.8 5.2-4.9 1.2-2.1 2-4.7 2.2-7.7.2-3 .3-6.3.3-10 0-4.3-.2-7.8-.5-10.6s-.9-5-1.8-6.7c-1.1-1.7-2.5-3.1-4.2-4.1-1.8-1.1-4.1-2.2-7-3.4l-16.8-6.9c-10.1-4.1-16.9-9.6-20.3-16.4-3.4-6.8-5.2-15.4-5.2-25.6 0-6.1.8-11.9 2.5-17.5 1.7-5.5 4.2-10.3 7.6-14.2 3.2-4 7.3-7.2 12.3-9.5 5-2.4 10.9-3.6 17.8-3.6 5.8 0 11.1 1.1 16 3.2 4.8 2.1 9 5 12.5 8.5 7 7.4 10.6 15.8 10.6 25.3v11.5zM689.9 560V443.5h23.4v11.3h.5c2.4-3.7 5.4-6.7 8.8-9.1 3.4-2.4 7.8-3.6 13.2-3.6 5.1 0 9.3 1.2 12.6 3.7 3.4 2.5 6.1 5.1 8.3 8 2.9-3.2 6.1-6 9.6-8.3 3.5-2.3 8.4-3.4 14.7-3.4 2.9 0 5.9.5 9 1.5 3.1 1 5.8 2.6 8.3 4.9 2.4 2.3 4.4 5.2 6 8.8 1.5 3.6 2.3 8 2.3 13.2V560h-23.4v-80.6c0-4.3-1-7.7-3-10.1-2-2.4-4.8-3.7-8.5-3.7-4.4 0-7.5 1.4-9.2 4.1-1.7 2.8-2.5 6.7-2.5 11.9V560h-23.4v-80.6c0-4.3-1-7.7-3-10.1-2-2.4-4.8-3.7-8.5-3.7-4.4 0-7.5 1.4-9.2 4.1-1.7 2.8-2.5 6.7-2.5 11.9V560h-23.5zM893.6 510.6h-46.4v15.8c0 3.7 1 6.5 3.1 8.5s4.9 3 8.4 3c4.4 0 7.4-1.3 8.8-3.9 1.5-2.6 2.3-5.2 2.6-7.8h23.4c0 10.3-3.1 18.5-9.4 24.8-3.1 3.2-6.7 5.7-11 7.6-4.3 1.8-9.1 2.8-14.5 2.8-7.4 0-13.6-1.5-18.7-4.6-5.1-3.1-9.1-7.1-11.8-12.2-1.7-3.1-2.8-6.6-3.4-10.6-.6-4-.9-8.3-.9-13.1v-38.4c0-4.7.3-9.1.9-13.1.6-4 1.8-7.5 3.4-10.6 2.8-5.1 6.7-9.1 11.8-12.2 5.1-3.1 11.4-4.6 18.7-4.6 5.4 0 10.2.9 14.6 2.8 4.4 1.8 8.1 4.4 11.1 7.6 6.1 6.9 9.2 15.5 9.2 26v32.2zm-46.4-18.4h23v-13.3c0-4.4-1-7.8-3.1-10s-4.9-3.3-8.4-3.3-6.3 1.1-8.4 3.3c-2.1 2.2-3.1 5.6-3.1 10v13.3zM909.5 396.4h23.4v130.7c0 4.4.8 7.5 2.4 9.1 1.6 1.6 4.6 2.6 9.1 3.1v22c-5.4 0-10.2-.4-14.5-1.3-4.3-.8-8-2.5-11-4.9-3.1-2.3-5.4-5.5-7-9.8-1.6-4.2-2.4-9.8-2.4-16.7V396.4zM952.2 396.4h23.4v130.7c0 4.4.8 7.5 2.4 9.1 1.6 1.6 4.6 2.6 9.1 3.1v22c-5.4 0-10.2-.4-14.5-1.3-4.3-.8-8-2.5-11-4.9-3.1-2.3-5.4-5.5-7-9.8-1.6-4.2-2.4-9.8-2.4-16.7V396.4zM1038.8 476.1c-.2-4-1.4-7-3.8-9s-5.1-3-8.2-3c-3.7 0-6.5 1.2-8.5 3.6-2 2.4-3 5.1-3 8.2 0 2.1.5 4.2 1.6 6.3 1.1 2.1 3.8 3.9 8.3 5.6l13.8 5.5c8.7 3.4 14.7 8 18 13.8 3.3 5.8 4.9 12.2 4.9 19.1 0 4.9-.9 9.5-2.6 13.7-1.8 4.2-4.2 7.9-7.2 11.1-3.1 3.2-6.7 5.7-11 7.6-4.3 1.8-9 2.8-14 2.8-9.5 0-17.5-3-23.9-9-3.2-2.9-5.8-6.5-7.8-10.9s-3.1-9.5-3.2-15.3h22c.5 3.2 1.6 6.2 3.3 9 1.8 2.8 4.9 4.1 9.3 4.1 3.4 0 6.4-1.1 9.1-3.3 2.7-2.2 4-5.3 4-9.3 0-3.2-.8-6-2.5-8.3-1.7-2.3-4.7-4.3-9.2-6l-11.3-4.1c-7.4-2.8-13.1-6.9-17.3-12.3-4.2-5.4-6.3-12.1-6.3-19.9 0-4.9.9-9.5 2.8-13.7 1.8-4.2 4.4-7.8 7.6-10.9 3.1-3.1 6.7-5.4 10.8-7 4.1-1.6 8.6-2.4 13.3-2.4 4.7 0 9.1.8 13.2 2.5s7.5 4.1 10.5 7.1c2.9 3.1 5.2 6.7 6.9 10.9 1.7 4.2 2.5 8.7 2.5 13.4h-22.1z"/></g><g><path d="M75.9 534.9C-55 751.8 166.3 801.6 244.3 803.4c112 2.6-99.5 116.1 85.5 214.8-160.8-85.4 17.6-230.4-55-225.2C248.6 804.7-40 781.7 75.9 534.9z"/><path d="M243.2 831.2c-30.6 75.9 86.9 54.7 60.4 131.2 10.4-67.6-118.5-84.4-60.4-131.2z"/></g></svg>