<?xml version="1.0" encoding="utf-8"?>
<svg viewBox="0 0 500 500" xmlns="http://www.w3.org/2000/svg">
  <path d="M 185.1006158759779 127.21527456946485 C 189.50620983048935 129.58247522502919 188.6023891060537 132.74609127608088 190.74586486816406 136.96888732910156 C 191.36661233350046 138.1918029285597 191.16195532070674 140.17640902184462 191.50030517578125 141.51150512695312 C 191.6613540540673 142.1469885678562 191.6483917236328 144.12821398093763 191.6483917236328 143.47264099121094 C 191.6483917236328 141.23857052008898 188.8998377920603 138.74937567410674 188.26243591308594 136.88084411621094 C 187.11793949885134 133.5257745150089 190.1535186767578 129.6299920344103 190.1535186767578 126.43482208251953 C 190.1535186767578 125.41195002215294 190.74473362759335 128.77731532260196 190.02145385742188 129.50059509277344 C 189.64306990510224 129.87897904509308 188.50182658599516 136.22789245619697 189.3190460205078 137.03292846679688 C 190.36141113638263 138.05975359972192 187.84201939979505 131.46767651075578 183.31959533691406 133.72901916503906 C 182.10793104631148 134.33488630728712 181.86676025390625 136.806493829749 181.86676025390625 138.19960021972656 C 181.86676025390625 139.02151928015482 181.72067260742188 141.48294506140482 181.72067260742188 140.66102600097656 C 181.72067260742188 138.6592895260519 184.94928464641907 140.2040051485028 185.8470458984375 139.30624389648438 C 188.31355556154568 136.8397342333762 190.9951702236443 128.16837244269138 197.25161743164062 131.24960327148438 C 199.3874760965663 132.3014899646067 198.5435385055973 139.3869653878162 196.01890563964844 138.1055450439453 C 193.9698588703125 137.06551651101123 192.45139857184438 134.48345947265625 190.1535186767578 134.48345947265625" style="stroke: rgb(0, 0, 0); fill: rgba(216, 216, 216,0.5);"/>
</svg>